<?xml version="1.0" standalone="no"?>
<!DOCTYPE svg PUBLIC "-//W3C//DTD SVG 20010904//EN"
 "http://www.w3.org/TR/2001/REC-SVG-20010904/DTD/svg10.dtd">
<svg version="1.0" xmlns="http://www.w3.org/2000/svg"
 width="3428.000000pt" height="4096.000000pt" viewBox="0 0 3428.000000 4096.000000"
 preserveAspectRatio="xMidYMid meet">

<g transform="translate(0.000000,4096.000000) scale(0.100000,-0.100000)"
fill="#000000" stroke="none">
<path d="M0 20480 l0 -20480 17140 0 17140 0 0 20480 0 20480 -17140 0 -17140
0 0 -20480z m13211 20280 c146 -25 266 -25 448 1 125 18 157 20 226 10 44 -6
106 -11 138 -11 50 0 57 -2 57 -19 0 -20 -149 -129 -352 -259 -281 -179 -564
-531 -638 -794 -27 -94 -37 -274 -21 -393 17 -129 60 -247 158 -435 159 -303
187 -367 217 -485 44 -175 60 -575 30 -723 -16 -82 -84 -262 -141 -377 -104
-206 -301 -447 -473 -576 -84 -62 -262 -146 -365 -170 -113 -27 -232 -23 -317
10 -66 25 -211 118 -308 196 -108 87 -220 251 -285 420 -19 50 -53 138 -75
196 -24 62 -65 143 -99 195 -140 212 -246 270 -639 348 -270 54 -409 108 -541
211 -77 59 -104 90 -144 165 -51 93 -70 168 -69 274 1 242 137 430 477 656
285 190 412 327 444 478 16 79 13 211 -8 352 -39 254 -37 341 14 439 43 84
117 132 260 167 102 25 415 25 590 0 156 -23 429 -26 525 -7 36 7 155 37 265
67 324 89 426 99 626 64z m7319 -24 c103 -11 140 -20 213 -50 171 -72 224
-105 314 -197 141 -146 220 -293 304 -568 41 -136 112 -315 189 -476 181 -382
236 -471 365 -601 93 -95 105 -103 175 -127 41 -13 93 -28 115 -31 22 -4 80
-19 128 -33 74 -22 95 -34 135 -73 26 -25 59 -71 75 -101 23 -46 27 -67 27
-134 0 -69 -4 -86 -28 -127 -39 -66 -82 -111 -138 -144 -45 -27 -57 -29 -149
-28 -65 0 -136 8 -202 22 -138 30 -173 29 -210 -5 -33 -31 -37 -54 -49 -288
-6 -117 -9 -134 -31 -167 -55 -81 -162 -157 -221 -158 -38 0 -94 35 -157 100
-100 103 -285 240 -323 240 -6 0 -61 25 -124 55 -62 30 -117 55 -123 55 -5 0
-37 11 -70 25 -33 13 -69 25 -79 25 -27 0 -204 55 -314 97 -161 62 -248 125
-321 233 -68 101 -85 153 -84 262 l1 97 53 98 c122 228 111 193 106 328 -4
132 -13 166 -111 453 -31 90 -61 191 -66 225 -6 34 -18 103 -27 152 -11 66
-13 123 -9 213 8 164 44 280 115 374 70 93 154 181 188 198 15 8 41 23 57 34
54 36 101 40 276 22z m-17317 -17 c48 -17 91 -22 192 -24 136 -3 150 -6 350
-75 99 -34 147 -71 166 -127 13 -41 6 -64 -39 -131 -40 -59 -70 -80 -267 -182
-141 -74 -285 -164 -285 -179 0 -4 10 -17 23 -29 23 -21 69 -40 154 -62 59
-15 103 -54 103 -91 0 -82 -48 -143 -402 -500 -241 -244 -292 -291 -343 -315
-150 -72 -357 -24 -466 109 -70 85 -112 222 -126 407 l-8 105 -65 -1 c-49 -1
-89 -11 -160 -39 -124 -48 -167 -45 -221 13 -30 31 -40 54 -54 116 -17 75 -17
79 7 214 l24 137 -39 75 c-76 149 -60 237 68 359 85 81 122 96 230 95 111 0
154 -22 257 -127 110 -112 164 -130 256 -83 78 40 114 73 182 164 58 77 73 91
145 129 126 67 211 78 318 42z m25865 -135 c151 -31 256 -104 305 -212 33 -72
30 -222 -5 -320 -70 -195 -266 -410 -533 -584 -117 -77 -323 -178 -454 -223
-175 -60 -234 -66 -661 -75 -326 -7 -402 -11 -496 -29 -375 -71 -644 -210
-883 -457 -132 -136 -222 -269 -335 -494 -88 -176 -118 -268 -136 -415 -20
-155 9 -326 84 -503 70 -168 150 -253 311 -333 178 -88 400 -126 586 -100 92
14 132 36 251 139 27 23 58 42 70 42 19 0 20 -4 16 -47 -3 -27 -19 -93 -36
-148 -98 -315 -414 -663 -703 -775 -128 -49 -250 -63 -489 -57 -293 8 -462 47
-690 162 -411 207 -579 494 -597 1021 -14 396 72 737 298 1185 164 325 329
548 605 821 409 403 795 655 1395 911 535 229 1200 435 1589 492 127 19 414
18 508 -1z m-21758 -137 c77 -28 159 -112 189 -192 33 -86 27 -206 -14 -288
-37 -76 -117 -149 -193 -177 -81 -31 -215 -25 -287 12 -66 34 -129 100 -163
167 -22 46 -26 68 -27 141 0 77 3 92 33 152 22 45 50 82 85 113 116 101 236
124 377 72z m24944 -1020 c32 -32 81 -157 102 -257 18 -89 17 -119 -6 -483
-16 -250 -30 -308 -136 -562 -34 -82 -38 -102 -44 -215 -5 -77 -14 -140 -24
-163 -8 -21 -58 -82 -109 -135 -115 -118 -149 -171 -239 -365 -153 -333 -231
-439 -501 -680 -163 -146 -343 -328 -606 -614 -137 -149 -184 -183 -256 -183
l-51 0 -95 -94 c-84 -83 -103 -97 -154 -112 -76 -21 -140 -15 -317 30 -152 39
-273 78 -331 108 -49 24 -111 80 -138 125 -45 72 -1 192 86 237 33 17 44 18
120 7 106 -15 155 -32 235 -82 l65 -40 38 42 c21 23 61 81 89 128 29 47 73
108 98 135 54 58 177 155 277 219 107 69 172 167 173 261 0 60 -25 103 -80
140 -103 68 -217 88 -340 61 -315 -69 -311 -68 -470 -69 -178 -1 -229 11 -299
70 -76 65 -86 116 -40 206 11 21 17 43 13 49 -4 6 -77 9 -202 8 -208 -2 -240
1 -338 32 -66 21 -121 66 -151 122 -33 62 -12 199 47 320 77 155 197 217 420
217 214 0 456 -83 737 -252 112 -67 216 -113 288 -129 33 -7 123 -13 200 -13
127 0 147 2 219 28 210 72 285 143 446 416 99 167 128 208 209 292 92 97 192
173 267 204 49 21 109 5 126 -32 11 -24 12 -23 28 28 22 69 102 234 180 373
34 61 109 198 167 305 106 197 179 311 211 329 28 17 62 12 86 -12z m-31460
-852 c78 -3 79 -3 122 -47 47 -47 58 -86 55 -200 -2 -54 0 -58 29 -73 55 -28
100 -75 100 -104 0 -45 -59 -122 -124 -161 -41 -25 -69 -52 -92 -88 -53 -82
-158 -137 -222 -114 -41 14 -65 0 -126 -74 -63 -76 -92 -94 -150 -94 -36 0
-52 6 -80 30 -40 36 -76 129 -76 199 0 124 70 265 199 404 32 34 60 69 63 77
3 9 -11 33 -33 57 -22 24 -39 50 -39 58 0 29 28 70 57 85 15 8 36 21 46 29 25
20 84 31 142 24 28 -3 86 -7 129 -8z m5183 -1195 c60 -21 90 -40 191 -124 242
-203 385 -225 1033 -159 219 22 510 22 607 0 127 -28 215 -78 313 -176 130
-132 180 -250 180 -432 0 -82 -4 -111 -31 -190 -94 -282 -327 -595 -786 -1055
-270 -270 -513 -475 -787 -662 -416 -284 -750 -432 -980 -434 -77 0 -95 3
-145 28 -71 36 -108 87 -123 169 -23 125 13 241 149 481 104 183 145 279 163
378 21 125 -9 223 -95 305 -93 87 -235 142 -519 201 -81 16 -175 39 -210 51
-188 63 -267 159 -289 352 -9 84 -8 102 11 177 12 46 34 112 50 146 60 128
317 480 446 610 88 89 246 211 346 266 168 93 335 117 476 68z m10852 -1232
c-1 -7 0 -20 3 -28 28 -79 41 -177 48 -360 10 -226 1 -401 -29 -610 -11 -74
-25 -180 -31 -235 -23 -202 -75 -385 -175 -621 -59 -136 -108 -221 -187 -321
-122 -156 -299 -307 -567 -488 -304 -205 -510 -274 -729 -246 -167 21 -279
100 -348 245 -63 131 -65 205 -14 471 16 83 36 226 45 320 18 191 33 274 71
390 78 237 196 391 469 608 288 230 373 283 790 497 297 153 425 228 540 319
88 68 118 84 114 59z m-15418 -364 c130 -24 257 -89 345 -178 77 -78 102 -124
129 -236 45 -191 89 -227 441 -365 290 -114 423 -192 554 -325 174 -175 213
-311 146 -507 -63 -186 -231 -447 -389 -604 -188 -188 -382 -295 -606 -333
-379 -65 -719 64 -855 323 -121 231 -147 455 -107 936 12 143 24 270 26 282 3
12 5 69 6 128 1 95 -2 112 -25 158 -14 29 -52 83 -85 120 -33 38 -72 94 -86
125 -24 51 -27 66 -23 138 3 64 10 90 31 126 39 67 112 143 154 162 21 10 51
24 68 34 62 34 154 39 276 16z m31671 -344 c72 -27 154 -100 193 -171 48 -89
67 -178 72 -340 6 -170 -5 -269 -78 -734 -60 -379 -87 -510 -135 -656 -47
-141 -92 -217 -184 -309 -252 -251 -639 -318 -965 -166 -70 33 -128 73 -260
182 -77 63 -177 114 -270 139 -37 10 -121 19 -215 22 -314 11 -580 -50 -773
-176 -81 -53 -205 -180 -232 -238 -19 -40 -69 -118 -105 -165 -48 -62 -164
-19 -219 81 -48 87 -37 221 28 366 87 190 330 468 570 648 136 102 261 175
438 253 184 82 356 168 448 223 205 125 464 328 699 547 216 202 326 296 421
359 233 154 407 195 567 135z m-9975 -45 c57 -24 97 -59 137 -119 51 -78 80
-158 146 -416 32 -124 67 -250 79 -281 41 -108 117 -169 251 -202 115 -28 191
-31 393 -12 181 17 196 17 257 1 183 -47 284 -172 283 -351 -1 -95 -24 -179
-89 -314 -124 -261 -263 -385 -506 -455 -199 -57 -495 -78 -793 -55 -289 21
-566 16 -775 -15 -197 -29 -502 -99 -631 -145 -169 -60 -352 -64 -521 -11 -85
26 -155 87 -168 144 -19 88 29 214 129 332 121 144 225 198 555 285 269 72
435 152 522 252 19 23 56 83 80 133 53 109 81 224 123 519 35 236 66 367 112
458 99 200 279 309 416 252z m-4813 -470 c195 -69 456 -320 575 -553 41 -81
63 -188 68 -343 8 -221 -24 -396 -122 -658 -88 -237 -115 -395 -115 -682 0
-219 15 -323 70 -490 103 -311 257 -512 478 -623 144 -72 286 -83 432 -32 66
22 104 46 327 201 140 97 240 123 353 89 44 -13 68 -29 125 -88 173 -174 239
-435 185 -731 -30 -166 -38 -417 -16 -503 8 -34 52 -135 96 -225 90 -184 109
-244 117 -373 7 -110 -5 -185 -57 -361 -21 -73 -44 -169 -50 -214 -21 -153 19
-292 132 -455 156 -224 186 -275 203 -338 11 -41 15 -77 11 -100 -9 -48 -57
-101 -120 -134 -46 -25 -61 -27 -162 -27 -106 0 -113 1 -160 30 -33 21 -60 48
-82 85 -40 68 -92 225 -127 390 -65 300 -76 343 -108 428 -49 132 -112 235
-200 328 -162 171 -279 233 -443 234 -218 0 -463 -122 -825 -412 -245 -196
-380 -267 -520 -276 -94 -6 -144 14 -165 65 -40 94 -57 206 -56 363 2 284 27
421 133 717 80 223 95 297 80 393 -13 84 -24 113 -105 287 -80 172 -129 315
-161 471 -51 247 -66 445 -45 597 6 39 15 205 20 370 5 165 12 381 16 480 9
264 -24 474 -141 880 -124 432 -121 673 12 1022 74 194 175 249 347 188z
m-8024 -374 c79 -30 152 -98 192 -179 30 -61 33 -74 33 -162 0 -84 -3 -102
-28 -152 -91 -184 -305 -255 -502 -164 -109 49 -188 158 -201 276 -19 171 113
357 283 400 56 14 161 5 223 -19z m7284 -841 c74 -297 91 -438 91 -750 0 -241
0 -246 -29 -345 -25 -83 -30 -119 -30 -210 0 -134 10 -220 30 -240 14 -13 14
-15 -1 -15 -23 0 -42 52 -59 172 -20 132 -20 205 -1 305 25 133 20 327 -19
703 -20 191 -32 508 -18 495 5 -5 21 -57 36 -115z m-11139 -1005 c80 -22 177
-67 202 -94 17 -18 20 -36 21 -109 1 -127 -12 -200 -64 -362 -88 -276 -180
-427 -376 -616 -118 -113 -254 -215 -573 -426 -382 -254 -559 -404 -1005 -853
-420 -423 -533 -522 -723 -636 -116 -69 -204 -99 -294 -99 -193 0 -298 114
-296 320 2 165 53 325 154 480 110 171 298 377 482 532 129 108 383 280 657
443 407 243 624 402 759 555 147 167 346 457 444 650 33 63 71 128 85 143 29
30 109 72 169 87 56 14 287 4 358 -15z m-5311 -1028 c33 -24 18 -115 -38 -235
-26 -57 -53 -130 -59 -166 -9 -56 -8 -75 17 -182 15 -65 39 -138 52 -161 36
-62 133 -143 289 -242 118 -74 141 -92 143 -115 4 -31 -18 -60 -60 -82 -51
-27 -442 -162 -528 -183 -47 -11 -138 -27 -202 -35 -196 -25 -391 -123 -476
-239 -57 -77 -67 -83 -86 -55 -18 26 -20 103 -6 238 5 47 14 173 20 280 20
384 42 523 102 649 46 97 177 223 349 337 246 163 425 233 483 191z m23885
-242 c59 -30 113 -119 131 -215 7 -37 7 -136 0 -314 -11 -272 -27 -412 -61
-537 -28 -103 -118 -284 -173 -346 -58 -65 -177 -159 -386 -306 -250 -175
-275 -200 -580 -597 -184 -240 -307 -336 -457 -360 -120 -20 -212 8 -473 142
-225 115 -347 153 -576 179 -149 17 -328 -1 -404 -40 -19 -10 -68 -31 -107
-46 -40 -14 -75 -31 -79 -36 -14 -23 -122 -94 -206 -134 -73 -36 -102 -45
-144 -45 -74 0 -96 11 -122 62 -39 80 -29 128 65 313 84 164 114 204 314 405
101 102 218 220 259 264 124 130 250 216 509 345 246 124 428 171 656 171 312
0 457 40 681 185 130 84 202 149 519 469 296 299 376 371 465 416 83 42 124
49 169 25z m8737 -149 c36 -19 54 -65 61 -151 4 -61 1 -83 -30 -175 -29 -86
-55 -170 -62 -200 0 -3 -5 -16 -9 -29 -18 -53 -43 -190 -36 -201 8 -13 78 -11
96 2 38 28 153 78 179 78 58 0 101 -74 110 -188 9 -113 10 -844 2 -887 -21
-109 -95 -199 -207 -253 -88 -42 -152 -54 -230 -41 -64 10 -218 77 -240 104
-7 8 -17 15 -23 15 -5 0 -45 32 -88 70 -42 39 -83 70 -90 70 -15 0 -59 -39
-59 -52 0 -5 -11 -24 -23 -41 -13 -18 -37 -63 -52 -102 -39 -96 -69 -126 -134
-133 -30 -3 -64 1 -83 9 -45 18 -131 77 -142 97 -5 10 -24 35 -43 58 -18 23
-33 45 -33 49 0 4 -17 29 -37 54 -20 25 -38 48 -39 49 -1 2 -22 8 -46 13 -119
27 -205 99 -226 189 -16 69 -15 179 2 226 23 66 76 134 130 167 28 18 53 31
56 30 3 0 14 4 25 10 11 6 77 11 150 11 l131 1 41 32 c79 63 105 188 73 358
-11 65 -11 77 9 149 39 140 97 221 197 272 31 16 66 35 80 42 13 7 31 26 39
41 7 15 30 41 49 57 52 43 122 94 130 94 5 0 21 9 37 21 16 11 37 22 46 23 21
4 113 53 128 67 14 14 129 11 161 -5z m-16018 -453 c90 -199 112 -263 142
-429 33 -180 41 -301 30 -481 -12 -196 -28 -280 -82 -433 -106 -302 -127 -370
-137 -440 -15 -100 -1 -205 45 -339 35 -100 36 -110 31 -206 -5 -102 -54 -378
-107 -605 -16 -68 -28 -126 -26 -127 2 -2 59 62 126 143 228 273 340 382 438
431 44 21 57 24 77 15 37 -17 30 -39 -17 -60 -101 -45 -196 -147 -449 -482
-163 -217 -195 -250 -241 -250 -22 0 -41 7 -53 20 -29 32 -31 159 -5 300 43
237 72 468 74 580 1 113 0 117 -36 195 -50 110 -58 143 -65 272 -9 169 11 263
121 578 58 166 75 268 82 485 5 146 3 201 -15 331 -24 179 -25 266 -7 430 19
165 27 174 74 72z m-2630 -177 c79 -21 99 -39 137 -121 84 -184 249 -361 416
-445 31 -16 94 -36 140 -45 201 -40 250 -67 335 -182 155 -211 201 -268 314
-388 138 -147 180 -205 180 -250 0 -50 -45 -128 -93 -163 -127 -90 -243 -57
-487 139 -69 55 -147 114 -175 130 -48 28 -105 39 -105 20 0 -23 -98 -115
-151 -142 -258 -130 -416 -101 -574 105 -100 130 -137 132 -216 11 -24 -37
-25 -121 -4 -232 52 -272 -38 -434 -219 -393 -138 31 -270 162 -326 325 -11
31 -31 127 -45 213 -33 196 -51 253 -137 425 -106 214 -121 303 -69 412 46 97
190 239 372 368 77 54 292 167 365 191 114 37 250 46 342 22z m-12470 -1216
c52 -24 54 -33 26 -139 -8 -31 -26 -135 -39 -231 -30 -210 -47 -252 -138 -336
-65 -61 -199 -131 -289 -153 -59 -14 -142 -14 -192 0 -90 25 -189 165 -217
307 -37 195 43 347 234 441 70 34 304 102 427 124 65 11 147 6 188 -13z m9217
-26 c138 -34 365 -181 520 -338 129 -130 386 -482 446 -610 16 -34 38 -100 50
-146 19 -75 20 -93 11 -177 -22 -193 -101 -289 -289 -352 -35 -12 -129 -35
-210 -51 -284 -59 -426 -114 -519 -201 -86 -82 -116 -180 -95 -305 18 -99 59
-195 163 -378 136 -240 172 -356 149 -481 -39 -213 -256 -255 -609 -119 -312
121 -753 408 -1129 737 -230 201 -586 570 -768 797 -143 178 -263 383 -315
539 -27 79 -31 108 -31 190 0 182 50 300 180 432 98 98 186 148 313 176 97 22
388 22 607 0 656 -67 789 -45 1046 169 49 41 113 86 141 99 96 46 205 52 339
19z m-7755 -439 c0 -31 -120 -203 -184 -263 -99 -94 -272 -160 -387 -148 -30
3 -100 23 -156 46 -159 63 -229 55 -380 -48 -85 -58 -132 -109 -165 -179 -17
-35 -35 -63 -40 -63 -18 0 -3 103 22 155 52 106 243 261 358 291 77 19 129 13
254 -27 49 -16 107 -29 128 -29 50 0 130 30 206 77 264 163 344 207 344 188z
m27040 -759 c25 -8 78 -25 118 -37 155 -46 237 -143 236 -277 -1 -106 -32
-171 -125 -267 l-78 -81 13 -64 c8 -36 34 -117 59 -181 54 -138 72 -220 64
-297 -25 -228 -161 -334 -358 -276 -232 69 -493 306 -558 507 -34 106 -44 178
-45 307 0 150 10 184 74 255 33 36 49 64 53 92 14 84 133 230 228 278 92 47
241 66 319 41z m-5287 -507 c119 -92 247 -167 542 -319 417 -214 502 -267 790
-497 273 -217 391 -371 469 -608 38 -116 53 -199 71 -390 9 -94 29 -237 45
-320 51 -266 49 -340 -14 -471 -69 -145 -181 -224 -348 -245 -219 -28 -425 41
-729 246 -268 181 -445 332 -567 488 -79 100 -128 185 -187 321 -100 236 -152
419 -175 621 -6 55 -20 161 -31 235 -51 351 -42 794 19 970 3 8 4 21 3 28 -4
24 21 11 112 -59z m-15553 -955 c36 -26 139 -109 230 -184 328 -268 589 -444
755 -509 55 -22 181 -62 280 -90 99 -27 277 -77 395 -110 237 -66 429 -108
668 -146 228 -37 695 -131 852 -171 308 -79 527 -169 655 -268 22 -16 114
-102 205 -191 91 -88 242 -227 335 -310 165 -145 720 -693 751 -741 24 -35 34
-90 20 -109 -16 -21 -48 -3 -144 84 -42 39 -123 106 -179 149 -57 44 -158 129
-225 190 -272 244 -533 432 -685 491 -28 11 -138 63 -243 116 -425 213 -882
374 -1565 554 -593 156 -888 289 -1400 631 -349 232 -766 587 -790 670 -6 22
-5 23 6 9 8 -9 43 -38 79 -65z m14787 -240 c33 -35 84 -135 193 -374 102 -222
248 -468 437 -734 82 -116 185 -263 229 -326 85 -124 215 -265 334 -365 335
-279 866 -505 1227 -522 71 -3 127 -11 132 -17 16 -20 17 -68 1 -76 -8 -5
-124 -34 -257 -65 -485 -113 -1043 -270 -1290 -364 -326 -123 -710 -315 -903
-449 -36 -25 -159 -116 -275 -201 -279 -206 -429 -306 -561 -373 -128 -66
-289 -122 -410 -143 -98 -17 -297 -20 -362 -5 -176 41 -288 177 -378 461 -92
290 -161 439 -298 644 -142 212 -294 346 -640 565 -98 62 -211 139 -250 170
-197 156 -282 321 -229 441 61 136 240 240 392 226 39 -3 99 -22 173 -52 311
-129 448 -149 656 -94 177 47 228 93 326 293 66 134 82 159 135 209 81 74 186
125 400 194 97 30 212 74 256 96 88 44 373 233 504 335 139 108 239 253 307
442 44 127 88 151 151 84z m-16825 -205 c151 -33 264 -127 409 -341 67 -99 83
-135 104 -235 19 -93 48 -162 126 -298 164 -289 207 -433 163 -547 -26 -66
-59 -95 -148 -129 -118 -44 -176 -87 -217 -160 -101 -180 -181 -233 -364 -246
-93 -6 -201 8 -280 38 -73 27 -148 97 -241 225 -88 121 -109 139 -180 160 -68
20 -124 79 -174 187 -71 152 -100 322 -81 469 17 129 28 166 83 303 27 66 53
148 59 183 12 81 31 125 70 170 31 35 105 97 166 139 18 12 45 31 60 42 16 11
53 27 83 35 67 18 287 21 362 5z m25667 -249 c60 -30 105 -91 144 -193 133
-349 136 -590 12 -1022 -117 -406 -150 -616 -141 -880 4 -99 11 -315 16 -480
5 -165 14 -331 20 -370 21 -152 6 -350 -45 -597 -32 -156 -81 -299 -161 -471
-81 -173 -91 -202 -105 -285 -15 -96 1 -172 80 -394 106 -297 131 -434 133
-718 1 -157 -16 -269 -56 -363 -21 -51 -71 -71 -165 -65 -140 9 -275 80 -520
276 -362 290 -607 412 -825 412 -160 -1 -275 -60 -432 -222 -81 -84 -133 -159
-181 -267 -19 -42 -38 -84 -43 -93 -6 -10 -10 -26 -10 -35 0 -10 -7 -31 -16
-48 -21 -40 -54 -180 -54 -230 0 -49 -40 -219 -81 -341 -41 -125 -82 -191
-143 -229 -47 -29 -54 -30 -160 -30 -101 0 -116 2 -162 27 -63 33 -111 86
-120 134 -4 23 0 59 11 100 17 63 47 114 203 338 113 163 153 302 132 455 -6
45 -29 141 -50 214 -52 176 -64 251 -57 361 8 129 27 189 117 373 44 90 88
191 96 225 22 86 14 337 -16 503 -54 296 12 557 185 731 57 59 81 75 125 88
113 34 213 8 353 -89 223 -155 261 -179 327 -201 146 -51 288 -40 432 32 221
111 375 312 478 623 55 167 70 271 70 490 0 287 -27 445 -115 682 -98 262
-130 437 -122 658 5 155 27 262 68 343 119 233 380 484 575 553 84 30 152 32
203 5z m-32434 -944 c72 -15 241 -65 380 -111 297 -100 394 -125 495 -125 105
0 179 22 290 85 166 94 205 109 300 113 107 5 175 -10 275 -61 123 -63 226
-171 293 -307 57 -116 101 -243 157 -455 40 -152 78 -252 178 -471 81 -178
143 -269 285 -416 112 -116 142 -162 142 -216 0 -65 -91 -196 -181 -258 -42
-29 -44 -29 -258 -40 -357 -20 -364 -28 -300 -352 26 -128 30 -171 25 -232 -8
-104 -52 -188 -132 -253 -100 -82 -125 -92 -234 -92 -87 0 -101 3 -160 32
-134 66 -193 151 -235 344 -57 256 -81 305 -217 434 -117 112 -258 199 -583
360 -333 164 -410 196 -712 299 -120 41 -259 93 -308 115 -207 96 -404 265
-493 422 -48 86 -117 249 -137 326 -8 29 -19 115 -25 191 -13 160 -8 191 47
291 43 77 91 131 193 216 132 110 199 144 361 180 106 24 392 14 554 -19z
m15010 -165 c106 -52 187 -137 211 -219 9 -30 27 -77 40 -106 36 -78 49 -219
35 -370 -25 -269 -75 -561 -152 -896 -176 -768 -340 -1096 -641 -1284 -372
-231 -751 -184 -1068 134 -256 256 -333 518 -218 745 82 161 265 333 553 520
66 43 178 116 250 163 204 133 305 245 305 337 0 68 -75 188 -229 365 -103
118 -149 201 -158 281 -18 176 97 263 425 325 216 41 333 53 470 49 87 -2 99
-5 177 -44z m4020 -260 c125 -44 213 -132 251 -249 28 -87 16 -242 -27 -357
-43 -112 -131 -261 -255 -430 -274 -374 -333 -494 -341 -705 -12 -275 72 -622
239 -990 142 -313 162 -380 156 -520 -4 -79 -9 -104 -32 -149 -91 -177 -411
-357 -761 -429 -163 -34 -311 -45 -514 -39 -409 12 -741 111 -1037 309 -56 37
-135 99 -177 138 -146 137 -219 259 -268 449 -27 104 -30 128 -26 226 5 134
22 185 142 430 148 303 427 753 657 1060 472 630 1161 1161 1648 1270 92 21
266 14 345 -14z m-11550 -782 c331 -79 844 -391 1302 -792 230 -201 586 -570
768 -797 143 -178 263 -383 315 -539 27 -79 31 -108 31 -190 0 -182 -50 -300
-180 -432 -98 -98 -186 -148 -313 -176 -97 -22 -388 -22 -607 0 -656 67 -789
45 -1046 -169 -145 -121 -246 -155 -401 -133 -139 19 -246 70 -419 198 -134
99 -239 207 -367 378 -214 285 -271 384 -309 533 -19 75 -20 93 -11 177 22
193 101 289 289 352 35 12 129 35 210 51 284 59 426 114 519 201 86 82 116
180 95 305 -18 99 -59 195 -163 378 -136 240 -172 356 -149 481 32 176 181
235 436 174z m20783 -1685 c173 -50 298 -138 386 -274 41 -63 46 -107 19 -180
-35 -95 -69 -122 -237 -189 -54 -22 -106 -47 -117 -57 -10 -9 -27 -42 -36 -73
-42 -132 -156 -181 -304 -131 -76 26 -122 55 -181 116 -117 122 -149 226 -130
425 7 67 17 129 22 139 13 25 89 60 129 60 l32 0 -6 43 c-6 37 -3 48 19 74 69
82 220 99 404 47z m-26472 -706 c63 -33 111 -86 120 -134 4 -23 0 -59 -11
-100 -17 -63 -47 -114 -203 -338 -113 -163 -153 -302 -132 -455 6 -45 29 -141
50 -214 52 -176 64 -251 57 -361 -8 -129 -27 -189 -117 -373 -44 -90 -88 -191
-96 -225 -22 -86 -14 -337 16 -503 54 -296 -12 -557 -185 -731 -57 -59 -81
-75 -125 -88 -113 -34 -213 -8 -353 89 -223 155 -261 179 -327 201 -146 51
-288 40 -432 -32 -221 -111 -375 -312 -478 -623 -55 -167 -70 -271 -70 -490 0
-287 27 -445 115 -682 98 -262 130 -437 122 -658 -5 -155 -27 -262 -68 -343
-119 -233 -380 -484 -575 -553 -172 -61 -273 -6 -347 188 -133 349 -136 590
-12 1022 117 406 150 616 141 880 -4 99 -11 315 -16 480 -5 165 -14 332 -20
370 -21 152 -6 350 45 597 32 156 81 299 161 471 81 173 91 202 105 285 15 96
-1 172 -80 394 -106 297 -131 434 -133 718 -1 157 16 269 56 363 21 51 71 71
165 65 140 -9 275 -80 520 -276 362 -290 607 -412 825 -412 160 1 275 60 432
222 81 84 133 159 181 267 19 42 38 84 43 93 6 10 10 26 10 35 0 10 7 32 16
48 21 40 54 180 54 230 0 47 39 215 76 330 72 221 140 278 324 272 79 -3 104
-8 146 -29z m22269 -1254 c138 -34 365 -181 520 -338 129 -130 386 -482 446
-610 16 -34 38 -100 50 -146 19 -75 20 -93 11 -177 -22 -193 -101 -289 -289
-352 -35 -12 -129 -35 -210 -51 -284 -59 -426 -114 -519 -201 -86 -82 -116
-180 -95 -305 18 -99 59 -195 163 -378 136 -240 172 -356 149 -481 -39 -213
-256 -255 -609 -119 -312 121 -753 408 -1129 737 -230 201 -586 570 -768 797
-143 178 -263 383 -315 539 -27 79 -31 108 -31 190 0 182 50 300 180 432 98
98 186 148 313 176 97 22 388 22 607 0 656 -67 789 -45 1046 169 49 41 113 86
141 99 96 46 205 52 339 19z m-10170 -153 c125 -22 291 -66 385 -102 179 -68
394 -199 523 -319 146 -137 219 -259 268 -449 27 -104 30 -128 26 -226 -5
-134 -22 -185 -142 -430 -208 -425 -586 -1000 -872 -1325 -383 -435 -908 -829
-1275 -959 -138 -48 -237 -65 -348 -58 -210 12 -353 109 -406 275 -28 87 -16
242 27 357 43 112 131 261 255 430 274 374 333 494 341 705 12 275 -72 622
-239 990 -142 313 -162 380 -156 520 4 79 9 104 32 149 109 212 513 408 946
461 134 16 499 5 635 -19z m-10534 -471 c76 -26 122 -55 181 -116 117 -122
149 -226 130 -425 -7 -67 -17 -129 -22 -139 -13 -25 -89 -60 -129 -60 l-32 0
7 -45 c6 -44 5 -47 -33 -83 -50 -48 -106 -65 -213 -64 -144 2 -304 58 -420
147 -69 54 -99 86 -144 155 -41 63 -46 107 -19 180 35 95 69 122 237 189 54
22 106 47 117 57 10 9 27 41 36 71 42 134 155 183 304 133z m26421 -638 c132
-65 191 -151 233 -343 57 -256 81 -305 217 -434 117 -112 258 -199 583 -360
333 -164 410 -196 712 -299 120 -41 259 -93 308 -115 207 -96 404 -265 493
-422 48 -86 117 -249 137 -326 8 -29 19 -115 25 -191 13 -160 8 -191 -47 -291
-45 -81 -86 -126 -200 -221 -111 -92 -161 -120 -278 -157 -86 -26 -99 -27
-295 -27 -185 0 -218 3 -335 28 -71 15 -242 65 -380 111 -297 100 -394 125
-495 125 -105 0 -179 -22 -290 -85 -166 -94 -205 -109 -300 -113 -107 -5 -175
10 -275 61 -123 63 -226 171 -293 307 -57 116 -101 243 -157 455 -40 152 -78
252 -178 471 -81 178 -143 269 -285 416 -112 116 -142 162 -142 216 0 65 91
196 181 258 42 29 44 29 258 40 357 20 364 28 300 352 -26 128 -30 171 -25
232 10 126 63 210 187 295 63 44 106 56 196 52 67 -3 92 -9 145 -35z m-12277
-2 c144 -45 272 -126 395 -250 256 -256 333 -518 218 -745 -82 -161 -265 -333
-553 -520 -66 -43 -178 -116 -250 -163 -204 -133 -305 -245 -305 -337 0 -68
75 -188 229 -365 103 -118 149 -201 158 -281 18 -176 -97 -263 -425 -325 -202
-38 -273 -46 -423 -47 l-135 -2 -86 43 c-109 53 -190 137 -214 220 -9 30 -27
77 -40 106 -36 78 -49 219 -35 370 42 445 182 1108 313 1485 53 152 134 323
202 425 129 194 357 348 591 400 97 22 266 15 360 -14z m-8257 -540 c176 -41
288 -177 378 -461 92 -290 161 -439 298 -644 142 -212 294 -346 640 -565 98
-62 211 -139 250 -170 197 -156 282 -321 229 -441 -61 -136 -240 -240 -392
-226 -39 3 -99 22 -173 52 -311 129 -448 149 -656 94 -177 -47 -228 -93 -326
-293 -66 -134 -82 -159 -135 -209 -81 -74 -186 -125 -400 -194 -97 -30 -212
-74 -256 -96 -88 -44 -373 -233 -504 -335 -139 -108 -239 -253 -307 -442 -44
-127 -88 -151 -151 -84 -33 35 -84 135 -193 374 -102 222 -248 468 -437 734
-82 116 -185 263 -229 326 -85 124 -215 265 -334 365 -335 279 -866 505 -1227
522 -71 3 -127 11 -132 17 -16 20 -17 68 -1 76 8 5 124 34 257 65 485 113
1043 270 1290 364 326 123 710 315 903 449 36 25 160 116 275 201 279 206 429
306 561 373 123 63 289 122 402 142 91 17 309 20 370 6z m8259 -1492 c43 -39
129 -110 191 -158 63 -49 168 -138 235 -198 271 -244 532 -432 684 -491 28
-11 138 -63 243 -116 425 -213 882 -374 1565 -554 593 -156 888 -289 1400
-631 349 -232 766 -587 790 -670 6 -22 5 -23 -6 -9 -8 9 -43 38 -79 65 -36 26
-139 109 -230 184 -328 268 -589 444 -755 509 -55 22 -181 62 -280 90 -99 27
-277 77 -395 110 -237 66 -429 108 -668 146 -228 37 -695 131 -852 171 -308
79 -527 169 -655 268 -22 16 -114 102 -205 191 -91 88 -241 227 -335 310 -190
167 -738 712 -760 755 -16 32 -22 80 -12 97 13 20 46 2 124 -69z m7151 -368
c153 -25 229 -80 358 -256 88 -121 109 -139 180 -160 68 -20 124 -79 174 -187
71 -152 100 -322 81 -469 -17 -129 -28 -166 -83 -303 -27 -66 -53 -148 -59
-183 -18 -116 -49 -164 -159 -250 -176 -138 -189 -143 -373 -150 -202 -6 -287
14 -397 97 -66 50 -142 136 -221 253 -67 99 -83 135 -104 235 -19 93 -48 162
-126 298 -164 289 -207 433 -163 547 26 66 59 95 148 129 138 52 187 94 245
207 29 57 85 118 136 147 83 49 227 67 363 45z m-19042 -501 c194 -27 462
-171 781 -421 259 -203 399 -377 508 -632 100 -236 152 -419 175 -621 6 -55
20 -161 31 -235 51 -351 42 -794 -19 -970 -3 -8 -4 -21 -3 -27 4 -25 -21 -12
-112 58 -119 92 -247 167 -542 319 -417 214 -502 267 -790 497 -273 217 -391
371 -469 608 -38 116 -53 199 -71 390 -9 94 -29 238 -45 320 -51 266 -49 340
14 471 46 97 102 156 190 199 102 50 210 64 352 44z m15569 -1340 c331 -79
844 -391 1302 -792 230 -201 586 -570 768 -797 143 -178 263 -383 315 -539 27
-79 31 -108 31 -190 0 -182 -50 -300 -180 -432 -98 -98 -186 -148 -313 -176
-97 -22 -388 -22 -607 0 -656 67 -789 45 -1046 -169 -145 -121 -246 -155 -401
-133 -139 19 -246 70 -419 198 -134 99 -239 207 -367 378 -214 285 -271 384
-309 533 -19 75 -20 93 -11 177 22 193 101 289 289 352 35 12 129 35 210 51
284 59 426 114 519 201 86 82 116 180 95 305 -18 99 -59 195 -163 378 -136
240 -172 356 -149 481 32 176 181 235 436 174z m-19424 -535 c232 -69 493
-306 558 -507 34 -106 44 -178 45 -307 0 -150 -10 -184 -74 -255 -33 -36 -49
-64 -53 -92 -4 -21 -25 -67 -47 -101 -90 -140 -185 -201 -348 -223 -81 -11
-99 -11 -145 3 -29 9 -85 27 -125 39 -155 47 -237 143 -236 277 1 106 32 171
125 267 l78 81 -13 64 c-8 36 -34 117 -59 181 -75 190 -83 280 -37 415 25 72
88 144 140 161 52 16 129 15 191 -3z m13554 -854 c29 -32 31 -159 5 -300 -43
-237 -72 -468 -74 -580 -1 -113 0 -117 36 -195 50 -110 58 -143 65 -272 9
-169 -11 -263 -121 -578 -58 -166 -75 -268 -82 -485 -5 -146 -3 -201 15 -331
24 -179 25 -266 7 -430 -19 -165 -27 -174 -74 -71 -90 198 -112 262 -142 428
-33 180 -41 301 -30 481 12 196 28 280 82 433 106 302 127 370 137 440 15 100
1 205 -45 339 -35 100 -36 110 -31 206 5 102 54 378 107 605 16 68 28 126 26
127 -2 2 -59 -62 -126 -143 -228 -273 -340 -382 -438 -431 -44 -21 -57 -24
-77 -15 -37 17 -30 39 18 60 100 45 195 147 448 482 163 217 195 250 241 250
22 0 41 -7 53 -20z m-3179 -726 c33 -20 60 -48 82 -84 40 -68 92 -225 127
-390 65 -300 76 -343 108 -428 49 -132 112 -235 200 -328 162 -171 279 -233
443 -234 218 0 463 122 825 412 245 196 380 267 520 276 94 6 144 -14 165 -65
40 -94 57 -206 56 -363 -2 -284 -27 -421 -133 -717 -80 -223 -95 -297 -80
-393 13 -84 24 -113 105 -287 80 -172 129 -315 161 -471 51 -247 66 -445 45
-597 -6 -38 -15 -205 -20 -370 -5 -165 -12 -381 -16 -480 -9 -264 24 -474 141
-880 124 -432 121 -673 -12 -1022 -74 -194 -175 -249 -347 -188 -195 69 -456
320 -575 553 -41 81 -63 188 -68 343 -8 221 24 396 122 658 88 237 115 395
115 682 0 219 -15 323 -70 490 -103 311 -257 512 -478 623 -144 72 -286 83
-432 32 -66 -22 -104 -46 -327 -201 -140 -97 -240 -123 -353 -89 -44 13 -68
29 -125 88 -173 174 -239 435 -185 731 30 166 38 417 16 503 -8 34 -52 135
-96 225 -90 184 -109 244 -117 373 -7 110 5 185 57 361 21 73 44 169 50 214
21 153 -19 292 -132 455 -156 224 -186 275 -203 338 -11 41 -15 77 -11 100 12
62 85 127 176 157 14 5 68 7 121 6 88 -2 101 -5 145 -33z m17912 -57 c-6 -76
-42 -142 -118 -217 -136 -136 -270 -200 -382 -185 -28 4 -91 20 -140 36 -49
16 -107 29 -128 29 -50 0 -130 -30 -206 -77 -264 -163 -344 -207 -344 -188 0
31 120 203 184 263 99 94 272 160 387 148 30 -3 100 -23 156 -46 159 -63 229
-55 380 48 85 58 132 109 165 180 17 34 35 62 40 62 7 0 9 -20 6 -53z m776
-208 c58 -16 131 -90 171 -173 88 -186 68 -367 -55 -485 -77 -74 -186 -123
-380 -171 -209 -53 -298 -61 -363 -32 -58 26 -60 33 -31 141 8 31 26 135 39
231 30 209 47 252 138 336 64 59 183 124 274 149 60 16 155 18 207 4z m-12526
-144 c102 -47 208 -173 252 -300 11 -31 31 -127 45 -213 33 -196 51 -253 137
-425 106 -214 121 -303 69 -412 -46 -97 -190 -239 -372 -368 -88 -62 -298
-170 -384 -197 -90 -28 -226 -37 -304 -20 -92 19 -117 39 -155 124 -85 185
-250 362 -417 446 -31 16 -94 36 -140 45 -201 40 -250 67 -335 182 -155 211
-201 268 -314 388 -138 147 -180 205 -180 250 0 50 45 128 93 163 127 90 243
57 487 -139 69 -55 148 -114 175 -130 48 -28 105 -39 105 -20 0 23 98 115 151
142 258 130 416 101 574 -105 100 -130 137 -132 216 -11 24 37 25 121 4 232
-39 205 4 359 111 393 42 13 121 2 182 -25z m-8733 -62 c39 -14 147 -65 240
-112 231 -118 351 -156 581 -182 149 -17 328 1 404 40 19 10 68 31 107 46 40
14 75 31 79 36 14 23 122 94 206 134 73 36 102 45 144 45 74 0 96 -11 122 -62
39 -80 29 -128 -65 -313 -84 -164 -114 -204 -314 -405 -101 -102 -218 -220
-259 -264 -124 -130 -250 -216 -509 -345 -246 -124 -428 -171 -656 -171 -312
0 -457 -40 -681 -185 -130 -84 -202 -149 -519 -469 -302 -305 -376 -371 -472
-419 -124 -63 -198 -36 -262 95 -38 79 -42 134 -31 412 11 272 27 412 61 537
28 103 118 284 173 346 58 65 177 159 386 306 250 175 275 200 580 597 52 68
130 158 172 201 159 159 321 200 513 132z m-9568 -395 c38 -17 133 -80 133
-88 0 -4 18 -30 40 -58 22 -27 40 -53 40 -57 0 -5 17 -29 37 -54 20 -25 38
-48 39 -49 1 -2 22 -8 46 -13 119 -27 205 -99 226 -189 16 -69 15 -179 -2
-226 -22 -65 -76 -134 -127 -166 -26 -16 -52 -29 -56 -30 -4 0 -17 -5 -28 -11
-11 -6 -77 -11 -150 -11 l-131 -1 -41 -32 c-79 -63 -105 -188 -73 -358 11 -65
11 -77 -9 -149 -39 -140 -97 -221 -197 -272 -31 -16 -66 -35 -80 -42 -13 -7
-31 -26 -39 -41 -7 -15 -30 -41 -49 -57 -52 -43 -122 -94 -130 -94 -5 0 -21
-9 -37 -21 -16 -11 -37 -22 -46 -24 -23 -4 -81 -33 -115 -57 -18 -12 -44 -18
-86 -18 -107 0 -139 35 -149 165 -4 61 -1 83 30 175 29 86 55 170 62 200 0 3
5 16 9 29 18 53 43 190 36 201 -8 13 -78 11 -96 -2 -38 -28 -153 -78 -179 -78
-58 0 -101 74 -110 188 -9 113 -10 844 -2 887 21 109 95 199 207 253 88 42
152 54 230 41 64 -10 218 -77 240 -104 7 -8 17 -15 23 -15 5 0 45 -31 88 -70
42 -38 83 -70 90 -70 15 0 59 39 59 52 0 5 11 24 23 41 13 18 37 64 52 102 30
74 57 112 90 125 30 13 99 11 132 -2z m29327 -348 c69 -26 127 -87 152 -161
35 -105 17 -285 -46 -446 -74 -193 -313 -487 -573 -705 -129 -108 -383 -280
-657 -443 -407 -243 -624 -402 -759 -555 -148 -168 -347 -459 -444 -650 -68
-134 -108 -177 -199 -211 -56 -21 -79 -24 -203 -23 -153 0 -219 13 -330 63
-94 43 -102 55 -103 159 -1 127 12 200 64 362 88 276 180 427 376 616 118 113
254 215 573 426 382 254 559 404 1005 853 420 423 533 522 723 636 165 98 301
123 421 79z m3335 -539 c0 -36 -4 -104 -9 -151 -5 -47 -14 -173 -20 -280 -20
-384 -42 -523 -102 -649 -46 -97 -177 -223 -349 -337 -245 -163 -425 -233
-483 -191 -33 24 -18 115 38 235 26 57 53 130 59 166 9 56 8 75 -17 182 -15
65 -39 138 -52 161 -36 62 -133 143 -289 242 -118 74 -141 92 -143 115 -4 31
18 60 60 82 51 27 442 162 528 183 47 11 138 27 202 35 83 11 140 25 200 49
103 41 227 124 264 174 15 21 39 51 53 66 l26 28 17 -22 c13 -16 18 -38 17
-88z m-17444 -2114 c18 -43 45 -227 45 -305 0 -33 -7 -96 -15 -139 -25 -133
-20 -327 19 -703 20 -191 32 -508 18 -495 -11 11 -51 169 -81 315 -36 175 -46
299 -46 550 0 241 0 246 29 345 25 83 30 119 30 210 0 134 -10 220 -30 240
-14 13 -14 15 1 15 9 0 22 -15 30 -33z m-12393 -650 c143 -109 127 -332 -41
-581 -164 -242 -428 -489 -686 -641 -52 -31 -161 -86 -242 -121 -184 -82 -356
-168 -448 -223 -205 -125 -464 -328 -699 -547 -302 -283 -417 -372 -585 -453
-206 -99 -385 -89 -514 29 -105 96 -147 216 -154 441 -6 170 5 269 78 734 60
379 87 510 135 656 47 141 92 217 184 309 252 251 639 318 965 166 70 -33 128
-73 260 -182 77 -63 177 -114 270 -139 37 -10 121 -19 215 -22 314 -11 580 50
773 176 81 53 205 180 232 238 19 40 69 118 105 166 32 41 94 38 152 -6z
m8607 -177 c136 -37 204 -101 204 -192 0 -110 -62 -227 -181 -346 -107 -107
-211 -155 -506 -233 -269 -72 -435 -152 -522 -252 -19 -23 -56 -83 -80 -133
-53 -109 -81 -224 -123 -519 -47 -321 -88 -450 -183 -572 -45 -58 -139 -127
-196 -143 -113 -31 -212 12 -286 124 -51 78 -80 158 -146 416 -32 124 -67 250
-79 281 -41 108 -117 169 -251 202 -115 28 -191 31 -393 12 -181 -17 -196 -17
-257 -1 -183 47 -284 172 -283 351 1 95 24 179 89 314 124 261 263 385 506
455 199 57 495 78 793 55 289 -21 566 -16 775 15 197 29 502 99 630 145 47 16
114 34 150 40 97 15 243 7 339 -19z m19689 -220 c231 -38 416 -158 506 -329
121 -231 147 -455 107 -936 -12 -143 -24 -270 -26 -282 -3 -12 -5 -69 -6 -128
-1 -95 2 -112 25 -158 14 -29 52 -83 85 -120 33 -38 72 -94 86 -125 24 -51 27
-66 23 -138 -3 -64 -10 -90 -31 -126 -39 -67 -112 -143 -154 -162 -21 -10 -54
-26 -74 -36 -95 -51 -289 -31 -449 47 -76 37 -109 60 -166 117 -77 78 -102
124 -129 236 -45 191 -89 227 -441 365 -290 114 -423 192 -554 325 -207 209
-228 367 -85 650 186 370 475 651 775 754 146 51 359 70 508 46z m-13463 -10
c93 -13 199 -66 254 -125 53 -57 108 -172 121 -251 13 -74 6 -149 -30 -339
-16 -82 -36 -226 -45 -320 -18 -191 -33 -274 -71 -390 -78 -237 -196 -391
-469 -608 -288 -230 -373 -283 -790 -497 -295 -152 -423 -227 -542 -319 -91
-70 -116 -83 -112 -58 1 6 0 19 -3 27 -28 79 -41 177 -48 360 -10 226 -1 401
29 610 11 74 25 180 31 235 23 202 75 385 175 621 59 136 108 221 187 321 122
156 299 307 567 488 313 211 515 277 746 245z m5076 -620 c215 -40 346 -231
295 -430 -28 -109 -112 -211 -214 -258 -76 -35 -199 -37 -282 -4 -80 32 -153
99 -192 180 -30 61 -33 74 -33 162 0 84 3 102 28 152 51 104 134 169 247 194
70 16 86 16 151 4z m4499 -318 c68 -34 106 -85 121 -167 23 -125 -13 -241
-149 -481 -104 -183 -145 -279 -163 -378 -21 -125 9 -223 95 -305 93 -87 235
-142 519 -201 81 -16 175 -39 210 -51 188 -63 267 -159 289 -352 9 -84 8 -102
-11 -177 -38 -149 -95 -248 -309 -533 -128 -171 -233 -279 -367 -378 -173
-128 -280 -179 -419 -198 -155 -22 -256 12 -401 133 -157 131 -253 176 -424
198 -93 12 -323 2 -622 -29 -219 -22 -510 -22 -607 0 -127 28 -215 78 -313
176 -130 132 -180 250 -180 432 0 82 4 111 31 190 52 156 172 361 315 539 182
227 538 596 768 797 508 444 1072 772 1399 812 90 11 155 3 218 -27z m-24330
-1396 c231 -53 398 -110 463 -160 23 -17 57 -52 75 -76 31 -40 34 -49 30 -97
-6 -64 -47 -128 -103 -157 -33 -17 -44 -18 -120 -7 -106 15 -155 32 -235 82
l-65 40 -38 -42 c-21 -23 -61 -81 -89 -128 -29 -47 -73 -108 -98 -135 -54 -58
-177 -155 -277 -219 -107 -69 -172 -167 -173 -261 0 -60 25 -103 80 -140 103
-68 217 -88 340 -61 315 69 311 68 470 69 178 1 229 -11 299 -70 76 -65 86
-116 40 -206 -11 -21 -17 -43 -13 -49 4 -6 77 -9 202 -8 208 2 240 -1 338 -32
66 -21 121 -66 151 -122 33 -62 12 -199 -47 -320 -77 -155 -197 -217 -420
-217 -214 0 -456 83 -737 252 -112 67 -216 113 -288 129 -33 7 -123 13 -200
13 -127 0 -147 -2 -219 -28 -210 -72 -285 -143 -446 -416 -99 -167 -128 -208
-209 -292 -92 -97 -192 -173 -267 -204 -49 -21 -109 -5 -126 32 -11 24 -12 23
-28 -28 -22 -69 -121 -273 -208 -423 -37 -66 -109 -196 -158 -288 -179 -337
-242 -380 -319 -214 -73 159 -83 268 -57 650 18 272 31 325 138 582 34 82 38
102 44 215 5 77 14 140 24 163 8 21 58 82 109 135 115 118 149 171 239 365
153 333 231 439 501 680 163 146 343 328 606 614 137 149 184 183 256 183 l51
0 95 94 c135 133 189 147 389 102z m4245 -446 c137 -29 260 -72 385 -135 411
-207 579 -494 597 -1021 14 -396 -72 -737 -298 -1185 -164 -325 -329 -548
-605 -821 -409 -403 -795 -655 -1395 -911 -552 -236 -1236 -445 -1622 -497
-121 -16 -385 -13 -475 6 -151 31 -256 104 -305 212 -33 72 -30 222 5 320 70
195 266 410 533 584 117 77 323 178 454 223 175 60 234 66 661 75 326 7 402
11 496 29 375 71 644 210 883 457 132 136 222 269 335 494 88 176 118 268 136
415 20 155 -9 326 -84 503 -70 168 -150 253 -311 333 -178 88 -400 126 -586
100 -92 -14 -132 -36 -251 -138 -27 -24 -58 -43 -70 -43 -19 0 -20 4 -16 48 9
82 65 243 119 337 196 344 487 578 782 630 127 22 500 14 632 -15z m13487
-519 c66 -25 212 -118 308 -196 108 -87 220 -251 285 -420 19 -49 53 -138 75
-196 24 -62 65 -143 99 -195 140 -212 246 -270 639 -348 270 -54 409 -108 541
-211 77 -59 104 -90 144 -165 51 -93 70 -168 69 -274 -1 -242 -137 -430 -477
-656 -285 -190 -412 -327 -444 -478 -16 -79 -13 -211 8 -352 39 -254 37 -341
-14 -439 -43 -84 -117 -132 -260 -167 -102 -25 -415 -25 -590 0 -156 23 -429
26 -525 7 -36 -7 -155 -37 -265 -67 -325 -89 -426 -99 -626 -64 -146 25 -266
25 -448 -1 -125 -18 -157 -20 -226 -10 -44 6 -106 11 -137 11 -51 0 -58 2 -58
19 0 20 149 129 352 259 281 179 564 531 638 794 27 94 37 274 21 393 -17 129
-60 247 -158 435 -159 303 -187 367 -217 485 -44 175 -60 575 -30 723 16 82
84 262 141 377 104 206 301 447 473 576 78 58 261 145 355 169 107 26 245 23
327 -9z m-9304 -930 c20 -11 64 -47 97 -81 100 -103 285 -240 323 -240 6 0 61
-25 124 -55 62 -30 118 -55 123 -55 6 0 37 -11 70 -25 33 -13 69 -25 79 -25
27 0 204 -55 314 -97 161 -62 248 -125 321 -233 68 -101 85 -153 84 -262 l-1
-97 -53 -98 c-122 -228 -111 -193 -106 -328 4 -132 13 -166 111 -453 31 -90
61 -191 66 -225 6 -34 18 -102 27 -152 11 -66 13 -123 9 -213 -8 -164 -44
-280 -115 -374 -70 -93 -154 -181 -188 -198 -15 -8 -41 -23 -57 -34 -46 -31
-101 -36 -246 -25 -118 10 -147 16 -230 49 -175 70 -235 106 -327 201 -141
146 -220 293 -304 568 -41 136 -112 315 -189 476 -181 382 -236 471 -365 601
-93 95 -105 103 -175 127 -41 13 -93 28 -115 31 -22 4 -80 19 -128 33 -74 22
-95 34 -135 73 -26 25 -59 71 -74 101 -24 46 -28 67 -28 134 0 69 4 86 28 127
39 66 82 111 138 144 45 27 57 29 149 28 65 0 136 -8 202 -22 138 -30 173 -29
210 6 33 30 37 53 49 287 6 117 9 134 31 167 55 81 162 157 221 158 12 0 39
-9 60 -19z m21166 -181 c40 -36 76 -129 76 -199 0 -124 -70 -265 -199 -404
-32 -34 -60 -69 -63 -77 -3 -9 11 -33 33 -57 22 -24 39 -50 39 -58 0 -29 -28
-70 -57 -85 -15 -8 -40 -23 -54 -33 -28 -20 -84 -23 -253 -13 l-89 5 -43 43
c-47 47 -58 86 -55 200 2 54 0 58 -29 73 -55 28 -100 75 -100 104 0 45 59 122
124 161 41 25 69 52 92 88 53 82 158 137 222 114 41 -14 65 0 126 74 65 78 90
93 148 94 39 0 54 -6 82 -30z m-2268 -1340 c195 -67 288 -225 311 -530 l8
-105 65 1 c49 1 89 11 160 39 124 48 167 45 221 -13 30 -31 40 -54 54 -116 17
-75 17 -79 -7 -214 l-24 -137 39 -75 c76 -149 60 -237 -68 -359 -85 -81 -122
-96 -230 -95 -111 0 -154 22 -257 127 -110 112 -164 130 -256 83 -78 -40 -114
-73 -182 -164 -62 -83 -70 -89 -160 -135 -122 -62 -200 -71 -300 -37 -52 18
-92 23 -195 25 -136 3 -150 6 -350 75 -99 34 -147 71 -166 127 -13 41 -6 64
39 131 40 59 70 80 267 182 141 74 285 164 285 179 0 4 -10 17 -23 29 -23 21
-69 40 -154 62 -119 30 -134 114 -41 233 55 71 569 596 620 634 102 75 225 94
344 53z m-4431 -812 c231 -120 259 -423 53 -588 -148 -119 -338 -111 -469 19
-77 78 -102 145 -97 261 5 108 39 180 115 250 78 71 135 91 253 87 79 -3 104
-8 145 -29z"/>
<path d="M12890 40599 c-30 -5 -149 -32 -265 -59 -115 -27 -244 -54 -285 -61
-96 -15 -389 -6 -565 16 -96 13 -176 16 -305 12 -196 -5 -272 -22 -348 -77
-71 -51 -75 -106 -27 -410 19 -119 19 -295 1 -381 -29 -134 -114 -279 -223
-379 -61 -56 -162 -132 -354 -269 -185 -131 -294 -249 -329 -356 -18 -55 -16
-161 4 -222 33 -101 111 -176 251 -246 93 -46 174 -70 379 -112 292 -60 383
-92 502 -173 148 -100 275 -293 379 -577 57 -157 73 -189 137 -282 61 -88 108
-132 224 -210 117 -79 158 -99 232 -114 177 -37 439 84 652 300 124 126 215
251 289 398 124 247 150 407 120 733 -23 251 -52 338 -235 695 -145 283 -180
423 -172 678 6 155 28 248 90 372 104 207 330 456 602 665 43 33 77 60 75 60
-2 0 -53 -7 -114 -15 -149 -20 -256 -18 -405 5 -133 21 -220 23 -310 9z"/>
<path d="M20309 40617 c-71 -36 -207 -166 -240 -229 -94 -183 -104 -429 -27
-693 11 -38 24 -83 29 -100 4 -16 22 -66 39 -110 60 -151 90 -265 96 -365 8
-132 -6 -202 -58 -295 -117 -209 -111 -195 -116 -278 -4 -72 -2 -81 29 -143
41 -80 125 -169 200 -211 53 -30 158 -68 374 -136 61 -20 154 -56 208 -81 54
-25 102 -46 108 -46 5 0 26 -8 47 -19 20 -10 65 -26 100 -35 79 -20 211 -85
281 -139 30 -23 79 -70 110 -104 31 -35 61 -63 68 -63 6 0 33 19 59 43 l48 44
8 149 c4 82 12 170 18 197 13 65 50 119 107 159 47 33 50 33 153 32 70 -1 133
-8 190 -23 163 -40 220 -23 291 88 51 78 35 171 -43 257 -33 36 -102 63 -215
83 -108 20 -209 65 -278 124 -143 122 -232 253 -400 587 -116 229 -188 402
-245 585 -122 394 -284 602 -555 710 -69 28 -97 33 -201 39 l-122 6 -63 -33z
m116 -1277 c99 -324 125 -516 90 -670 -22 -92 -34 -120 -69 -158 l-30 -32 19
-36 c26 -49 144 -134 248 -179 48 -21 87 -42 87 -47 0 -29 -177 18 -274 72
-72 41 -140 102 -156 139 -19 46 -5 97 31 118 65 38 89 123 89 313 0 105 -6
137 -84 435 -24 92 -47 202 -50 246 l-4 54 35 -75 c19 -41 50 -122 68 -180z"/>
<path d="M2955 40558 c-27 -18 -71 -62 -98 -98 -101 -136 -196 -211 -304 -239
-55 -15 -164 2 -218 34 -22 13 -71 56 -110 96 -77 80 -112 99 -180 99 -62 0
-105 -20 -165 -76 -58 -54 -63 -83 -25 -135 50 -69 85 -135 85 -159 0 -14 -9
-77 -20 -140 -23 -136 -25 -180 -6 -205 12 -17 16 -17 88 13 183 76 367 59
407 -38 5 -14 12 -88 14 -165 6 -213 45 -300 162 -360 45 -23 72 -30 114 -30
100 1 136 28 433 329 l266 270 -58 18 c-112 35 -180 135 -180 264 0 45 5 59
32 89 26 31 202 145 223 145 9 0 179 86 234 118 l45 26 -60 18 c-32 10 -115
32 -184 49 -69 17 -147 42 -174 56 -33 17 -78 28 -135 34 -47 5 -97 11 -111
14 -18 4 -39 -4 -75 -27z"/>
<path d="M28590 40485 c-349 -50 -984 -250 -1515 -476 -183 -78 -465 -216
-600 -294 -398 -230 -825 -604 -1085 -951 -251 -334 -455 -787 -526 -1173 -22
-120 -30 -405 -14 -528 15 -125 50 -246 101 -352 94 -194 368 -392 666 -480
141 -42 248 -55 458 -55 156 0 215 4 269 17 216 54 431 205 585 410 95 128
153 228 140 242 -3 2 -31 -9 -64 -25 -127 -63 -339 -75 -536 -31 -108 24 -250
78 -325 122 -205 121 -356 421 -371 735 -10 221 25 364 155 629 136 276 216
389 403 570 229 222 485 354 813 420 187 37 342 48 591 40 400 -12 578 22 875
163 330 158 616 423 680 631 26 81 26 182 1 236 -35 76 -110 125 -227 150 -85
18 -352 18 -474 0z"/>
<path d="M32141 39192 c-54 -107 -131 -281 -217 -492 -30 -74 -74 -169 -96
-210 -23 -41 -56 -102 -74 -136 -47 -86 -76 -114 -116 -114 -47 0 -96 34 -115
78 -8 20 -17 39 -18 40 -2 2 -32 -11 -67 -30 -42 -22 -97 -67 -163 -133 -86
-85 -120 -130 -225 -295 -147 -230 -199 -286 -341 -366 -133 -75 -240 -111
-373 -125 -199 -21 -307 6 -529 134 -234 135 -350 183 -522 216 -181 35 -330
23 -417 -34 -47 -31 -85 -104 -103 -198 l-13 -71 30 -28 c20 -19 67 -40 147
-65 106 -34 129 -38 266 -43 88 -3 159 -10 171 -17 55 -31 75 -111 44 -179
-11 -26 -20 -53 -20 -60 0 -21 79 -62 155 -80 98 -23 231 -13 425 31 85 20
180 38 210 41 156 17 357 -81 414 -201 40 -83 28 -181 -36 -309 -35 -69 -98
-133 -288 -289 -111 -91 -131 -112 -185 -198 -85 -137 -136 -202 -169 -218
-39 -18 -90 -2 -152 49 -68 56 -109 73 -186 78 -89 6 -114 -2 -133 -38 -19
-36 -17 -39 32 -73 55 -37 476 -188 545 -194 78 -8 103 1 162 56 102 96 143
121 196 121 27 0 71 5 99 11 61 13 94 46 345 352 169 206 261 311 522 595 149
163 226 274 336 487 118 230 164 299 274 414 l89 94 6 136 c7 146 13 170 97
371 21 52 47 124 56 160 19 78 50 559 40 640 -9 80 -34 190 -44 190 -4 0 -31
-44 -59 -98z"/>
<path d="M807 38523 c-32 -14 -46 -14 -90 -4 -38 9 -59 10 -80 2 -16 -6 -48
-11 -72 -11 -39 0 -46 -4 -65 -35 -21 -34 -21 -37 -5 -55 9 -10 27 -21 40 -24
60 -15 56 -92 -10 -211 -25 -44 -70 -129 -100 -189 -46 -91 -55 -118 -55 -161
0 -77 21 -89 57 -35 117 172 137 187 243 177 64 -5 82 5 135 76 19 28 47 48
94 69 36 16 67 31 70 33 2 3 -7 16 -21 30 -46 46 -52 76 -33 152 30 125 31
124 -10 166 -40 41 -44 42 -98 20z"/>
<path d="M5731 37275 c-90 -20 -229 -92 -341 -176 -125 -93 -182 -149 -302
-297 -234 -289 -334 -450 -357 -578 -23 -128 53 -270 178 -334 65 -32 121 -49
286 -85 455 -101 637 -237 652 -488 10 -147 -38 -279 -202 -567 -104 -182
-136 -288 -116 -382 22 -98 78 -138 194 -138 304 0 948 361 1480 830 150 132
492 478 613 620 340 400 466 692 395 919 -52 168 -224 316 -408 352 -79 15
-383 7 -648 -16 -251 -22 -557 -16 -660 13 -164 47 -243 90 -385 211 -52 45
-114 91 -137 102 -55 27 -160 33 -242 14z m-321 -430 c0 -5 -70 -103 -234
-327 -64 -88 -104 -171 -113 -239 -5 -33 -3 -37 32 -53 57 -27 168 -63 300
-98 137 -35 169 -49 243 -108 82 -66 71 -80 -62 -80 -63 0 -109 8 -201 34
-223 64 -329 115 -383 186 -30 39 -33 49 -28 84 8 49 72 187 117 253 57 82
248 307 282 331 31 22 47 27 47 17z m2055 -220 c48 -9 111 -27 140 -40 61 -29
119 -97 136 -159 16 -59 -4 -158 -51 -249 -80 -157 -148 -247 -309 -407 -153
-152 -281 -262 -281 -241 0 6 4 11 10 11 5 0 80 69 166 152 158 154 228 239
263 319 28 64 64 244 57 283 -8 44 -63 106 -123 138 -90 49 -147 58 -493 74
-309 14 -370 21 -370 43 0 27 212 67 425 80 211 13 337 12 430 -4z"/>
<path d="M16705 35974 c-112 -113 -218 -188 -555 -394 -553 -339 -917 -621
-1019 -793 -77 -130 -121 -286 -146 -517 -9 -85 -30 -229 -47 -320 -17 -92
-31 -203 -32 -250 -1 -78 2 -92 32 -152 56 -114 144 -165 302 -175 195 -12
359 66 740 352 166 125 352 305 429 415 132 188 240 478 275 735 56 415 68
523 81 730 8 126 20 275 26 330 6 55 10 107 8 115 -3 10 -35 -16 -94 -76z"/>
<path d="M1133 35603 c-48 -27 -121 -118 -129 -159 -10 -52 9 -103 73 -196 30
-44 70 -111 87 -147 l31 -66 -1 -260 c0 -143 -2 -377 -5 -520 -4 -279 0 -322
48 -470 39 -121 78 -188 151 -257 77 -71 174 -121 282 -144 114 -24 326 -14
445 20 250 73 449 224 607 460 108 162 178 323 178 411 0 66 -21 108 -92 182
-108 112 -255 204 -508 315 -204 91 -339 162 -404 215 -80 64 -134 164 -166
306 -22 100 -23 102 -79 157 -61 59 -163 118 -248 143 -29 9 -94 19 -145 22
-79 5 -98 4 -125 -12z"/>
<path d="M32830 35331 c-176 -57 -350 -177 -600 -416 -176 -168 -239 -224
-365 -324 -285 -228 -481 -348 -780 -480 -104 -46 -232 -106 -283 -134 -171
-94 -371 -259 -511 -421 -194 -226 -282 -387 -283 -522 -1 -47 4 -61 29 -92
53 -65 60 -61 175 106 168 244 377 364 738 424 44 7 160 12 280 12 179 0 215
-3 285 -22 109 -30 202 -78 315 -163 182 -136 335 -192 530 -191 178 1 308 43
455 147 156 110 222 232 285 520 22 105 121 726 139 880 16 134 14 354 -5 434
-46 205 -212 304 -404 242z"/>
<path d="M22953 35285 c-28 -14 -72 -48 -98 -76 -87 -93 -125 -214 -150 -476
-37 -391 -61 -505 -136 -662 -43 -87 -63 -117 -127 -180 -132 -132 -230 -179
-542 -261 -219 -58 -317 -94 -395 -146 -90 -59 -159 -149 -186 -242 -11 -39
-11 -44 10 -66 33 -35 110 -65 199 -78 68 -10 98 -8 257 16 99 14 254 44 345
67 437 107 657 121 1237 79 182 -13 451 0 588 29 290 62 423 163 549 418 67
135 89 218 84 317 -5 106 -31 153 -110 206 -90 60 -112 64 -268 54 -74 -5
-205 -9 -290 -9 -130 1 -167 4 -233 23 -214 61 -268 135 -361 502 -77 304
-106 381 -170 448 -64 68 -120 78 -203 37z"/>
<path d="M18144 34820 c-49 -19 -98 -124 -151 -320 -24 -92 -28 -123 -28 -250
0 -172 18 -279 81 -490 85 -284 138 -535 150 -711 9 -129 -13 -841 -32 -1057
-18 -195 -13 -278 32 -502 34 -168 89 -330 179 -521 93 -199 105 -239 112
-366 7 -125 -3 -172 -92 -421 -90 -253 -137 -511 -137 -752 1 -94 19 -200 37
-219 4 -3 30 -6 58 -5 104 1 262 86 465 247 167 133 269 200 415 277 132 69
198 91 381 129 190 40 237 30 406 -89 150 -106 273 -212 310 -267 55 -83 138
-265 159 -348 11 -44 36 -156 55 -250 40 -190 97 -378 129 -427 34 -50 80 -72
152 -72 66 0 149 33 169 66 22 36 -15 107 -158 303 -76 105 -147 243 -172 335
-12 45 -18 100 -17 175 0 114 10 161 78 380 25 78 29 107 29 220 1 153 -4 173
-104 385 -81 170 -96 220 -110 355 -12 109 -9 168 21 410 15 126 17 176 10
235 -21 163 -91 318 -177 388 -101 83 -176 64 -407 -105 -171 -126 -257 -160
-423 -170 -386 -23 -722 268 -898 775 -59 171 -77 273 -83 488 -9 308 16 481
111 768 108 327 138 579 94 791 -41 198 -277 473 -502 586 -79 39 -104 45
-142 29z"/>
<path d="M6140 32621 c-116 -22 -175 -65 -222 -164 -112 -233 -403 -636 -574
-797 -129 -121 -319 -252 -652 -449 -517 -306 -725 -459 -952 -699 -250 -265
-351 -461 -352 -682 -1 -141 37 -202 147 -236 74 -24 151 -9 270 51 193 97
365 248 780 685 414 436 625 618 1070 920 275 187 388 274 506 391 110 110
193 216 237 305 52 104 132 377 143 489 5 55 15 103 22 107 15 9 -57 40 -143
61 -80 20 -220 29 -280 18z"/>
<path d="M983 31590 c-29 -10 -75 -30 -103 -44 -62 -31 -298 -216 -390 -306
-136 -132 -153 -194 -205 -728 -8 -90 -27 -214 -40 -277 -14 -63 -25 -122 -25
-131 0 -11 18 1 55 34 123 113 269 175 447 192 167 16 220 32 536 157 l193 76
-78 45 c-193 111 -237 140 -292 192 -71 68 -91 106 -131 246 -35 126 -40 237
-14 325 9 30 38 96 65 147 27 50 46 92 42 91 -4 0 -31 -9 -60 -19z"/>
<path d="M24876 31235 c-95 -57 -129 -88 -421 -375 -358 -352 -488 -456 -688
-550 -160 -75 -232 -90 -522 -105 -226 -12 -272 -17 -350 -40 -165 -48 -352
-142 -572 -287 -95 -62 -144 -107 -408 -375 -284 -289 -304 -311 -382 -435
-45 -71 -86 -143 -92 -159 -9 -28 -9 -29 18 -29 30 0 149 58 247 121 86 56
270 135 382 167 90 25 111 27 287 27 281 0 408 -31 688 -171 420 -211 487
-184 882 341 199 266 251 318 504 508 119 89 250 196 292 237 166 164 211 321
228 797 9 228 6 299 -14 346 -10 23 -12 22 -79 -18z"/>
<path d="M33590 31056 c-24 -12 -102 -56 -145 -80 -11 -6 -34 -21 -52 -33 -17
-13 -34 -23 -38 -23 -3 0 -23 -11 -43 -25 -20 -14 -43 -25 -51 -25 -26 0 -116
-48 -141 -75 -14 -15 -43 -40 -65 -55 -36 -24 -42 -35 -54 -91 -11 -47 -12
-75 -4 -113 17 -84 14 -264 -5 -321 -24 -68 -54 -115 -99 -151 -75 -61 -98
-68 -238 -72 -141 -4 -175 -12 -218 -51 -43 -39 -58 -79 -64 -163 -8 -105 15
-130 129 -141 31 -3 70 -13 86 -21 27 -14 102 -96 102 -112 0 -4 16 -26 35
-50 19 -23 35 -46 35 -51 0 -16 54 -61 82 -68 24 -6 29 -3 39 21 7 16 18 43
25 59 7 17 17 42 22 55 16 42 98 136 148 169 37 24 58 31 96 31 49 0 51 -1
153 -99 145 -140 248 -187 355 -161 94 23 132 49 166 119 42 84 47 157 38 553
l-7 317 -31 -22 c-17 -12 -31 -20 -31 -19 0 2 -13 -1 -28 -7 -38 -15 -128 -14
-164 2 -43 18 -119 78 -137 109 -19 32 -20 90 -3 149 8 24 14 46 14 49 4 26
28 107 48 155 32 80 78 232 73 245 -2 6 -13 5 -28 -4z"/>
<path d="M14869 30466 c-2 -3 -47 -12 -99 -21 -117 -19 -219 -67 -342 -160
-104 -78 -240 -205 -280 -259 -49 -68 -35 -143 65 -342 67 -133 86 -198 113
-388 29 -201 43 -254 84 -319 58 -92 154 -157 233 -157 34 0 40 4 53 35 18 44
18 135 -1 250 -27 163 -15 231 58 328 62 82 100 107 160 107 72 0 118 -30 177
-116 116 -168 216 -207 382 -148 113 40 150 66 182 124 38 69 63 84 132 77 67
-7 118 -35 227 -128 275 -234 336 -268 422 -230 45 20 85 69 85 103 0 10 -59
79 -131 155 -72 76 -170 187 -218 247 -47 60 -104 132 -127 160 -58 73 -111
102 -261 141 -72 18 -150 43 -174 56 -118 60 -252 176 -361 315 -59 75 -161
150 -213 158 -54 9 -161 16 -166 12z"/>
<path d="M2478 29390 c-101 -17 -356 -93 -428 -127 -92 -44 -180 -128 -198
-189 -40 -136 34 -341 141 -393 56 -27 98 -27 194 4 130 41 244 119 283 195
12 23 25 90 36 185 11 98 27 180 45 235 35 105 33 108 -73 90z"/>
<path d="M11589 29306 c-53 -14 -85 -35 -194 -129 -125 -108 -210 -154 -370
-199 -103 -29 -409 -35 -660 -13 -265 23 -569 31 -648 16 -184 -36 -356 -184
-408 -352 -71 -227 55 -519 395 -919 121 -142 463 -488 613 -620 532 -469
1176 -830 1480 -830 116 0 172 40 194 138 20 94 -12 200 -116 382 -164 288
-212 420 -202 567 15 251 197 387 652 488 234 52 315 85 378 154 43 48 60 78
81 151 42 141 -47 316 -352 692 -120 148 -177 204 -302 297 -204 153 -397 216
-541 177z m568 -448 c34 -24 225 -249 282 -331 45 -66 109 -204 117 -253 5
-35 2 -45 -28 -84 -54 -71 -160 -122 -383 -186 -92 -26 -138 -34 -201 -34
-133 0 -144 14 -61 80 73 59 105 73 242 108 132 35 243 71 300 98 35 16 37 20
32 53 -9 68 -49 151 -113 239 -164 224 -234 322 -234 327 0 10 16 5 47 -17z
m-1697 -198 c243 -16 450 -53 450 -81 0 -22 -61 -29 -370 -43 -346 -16 -403
-25 -493 -74 -60 -32 -115 -94 -123 -138 -7 -39 29 -219 57 -283 35 -80 105
-165 263 -319 86 -83 161 -152 166 -152 6 0 10 -5 10 -11 0 -21 -128 89 -281
241 -161 160 -229 250 -309 407 -47 91 -67 190 -51 249 17 62 75 130 137 159
109 51 249 63 544 45z"/>
<path d="M31010 28058 c-60 -7 -156 -40 -181 -61 -9 -6 -30 -58 -48 -114 -28
-85 -41 -112 -89 -170 l-57 -68 1 -145 c1 -173 19 -241 85 -326 118 -153 386
-299 468 -254 31 16 51 69 51 135 0 41 -12 89 -51 193 -28 77 -57 179 -67 233
-22 131 -10 162 100 261 88 80 108 110 108 163 0 47 -12 68 -52 92 -89 52
-180 73 -268 61z"/>
<path d="M25760 27656 c0 -18 4 -68 10 -112 5 -43 17 -185 25 -314 13 -211 25
-319 81 -735 35 -257 143 -547 275 -735 77 -110 263 -290 429 -415 381 -286
545 -364 740 -352 158 10 246 61 302 175 30 60 33 74 32 152 -1 47 -15 158
-32 250 -17 91 -38 235 -47 320 -25 231 -69 387 -146 517 -102 172 -466 454
-1019 793 -338 206 -443 281 -557 396 -93 93 -93 93 -93 60z"/>
<path d="M24971 26330 c-59 -159 -168 -312 -301 -423 -98 -82 -411 -294 -514
-348 -53 -27 -165 -71 -268 -104 -98 -30 -214 -74 -259 -97 -122 -61 -156
-101 -243 -281 -85 -176 -125 -221 -250 -282 -96 -47 -171 -65 -296 -72 -175
-9 -273 16 -555 141 -139 62 -257 43 -362 -58 -61 -60 -66 -83 -32 -153 46
-96 166 -200 429 -376 219 -146 306 -213 419 -322 222 -214 410 -532 521 -885
64 -202 78 -228 149 -303 103 -109 174 -144 335 -167 162 -23 331 16 548 127
144 73 266 157 563 384 138 105 293 219 345 254 206 136 597 328 882 434 232
86 652 202 1111 307 l78 18 -126 33 c-249 66 -551 198 -755 331 -214 139 -407
325 -544 523 -44 62 -141 195 -216 294 -172 227 -197 265 -304 453 -89 157
-156 296 -227 474 -43 108 -74 174 -86 181 -5 3 -23 -35 -42 -83z"/>
<path d="M8085 26200 c-27 -5 -77 -12 -110 -16 -66 -8 -174 -54 -247 -107 -69
-48 -106 -100 -113 -155 -9 -79 -24 -132 -71 -247 -99 -247 -109 -420 -33
-616 40 -104 90 -160 159 -178 65 -17 106 -52 190 -166 113 -152 164 -196 255
-220 86 -22 232 -20 302 5 71 25 103 55 148 142 20 38 51 86 68 105 43 49 131
105 209 133 107 38 126 77 92 191 -25 84 -60 163 -132 294 -84 154 -118 238
-138 339 -19 95 -42 143 -119 251 -69 98 -156 188 -211 221 -47 28 -162 39
-249 24z"/>
<path d="M33725 25921 c-176 -88 -388 -304 -464 -472 -52 -117 -69 -261 -52
-439 16 -157 42 -271 107 -466 95 -287 120 -460 111 -768 -6 -215 -24 -317
-83 -488 -176 -507 -512 -798 -898 -775 -166 10 -252 44 -423 170 -180 131
-264 169 -331 149 -119 -36 -225 -218 -253 -432 -7 -59 -5 -109 10 -235 30
-242 33 -301 21 -410 -14 -135 -29 -185 -110 -355 -100 -212 -105 -232 -104
-385 0 -113 4 -142 29 -220 68 -219 78 -266 78 -380 1 -75 -5 -130 -17 -175
-25 -92 -96 -230 -172 -335 -143 -196 -180 -267 -158 -303 20 -33 103 -66 169
-66 72 0 118 22 152 72 32 49 89 237 129 427 19 94 44 206 55 250 21 83 104
265 159 348 37 55 160 161 310 267 169 119 216 129 406 89 183 -38 249 -60
381 -129 146 -77 248 -144 415 -277 203 -161 361 -246 465 -247 28 -1 54 2 58
5 18 19 36 125 37 219 0 241 -47 499 -137 752 -89 249 -99 296 -92 421 7 127
19 167 112 366 90 191 145 353 179 521 45 224 50 307 32 502 -19 216 -41 928
-32 1057 12 176 65 427 150 711 63 211 81 318 81 490 0 127 -4 158 -28 250
-38 141 -84 256 -116 292 -42 47 -82 47 -176 -1z"/>
<path d="M945 25010 c-169 -44 -229 -78 -350 -197 -58 -58 -90 -99 -118 -154
-37 -74 -37 -74 -37 -199 0 -136 9 -183 60 -303 91 -218 285 -406 544 -528 46
-21 175 -70 287 -108 259 -87 384 -138 622 -256 423 -207 632 -344 772 -507
79 -91 111 -159 150 -319 58 -234 62 -247 106 -289 58 -56 132 -90 196 -90 69
0 106 16 170 74 79 71 89 129 52 302 -11 55 -23 151 -26 215 -6 130 5 172 67
243 67 76 127 92 393 104 l177 9 31 29 c18 16 44 46 60 67 l28 38 -107 107
c-141 141 -221 278 -271 466 -21 76 -56 165 -126 316 -24 52 -74 192 -110 310
-37 118 -79 245 -95 282 -82 198 -262 345 -434 356 -87 5 -120 -7 -296 -107
-155 -89 -197 -102 -335 -108 -99 -4 -122 -1 -228 26 -65 16 -189 57 -275 90
-170 64 -335 111 -476 136 -126 21 -341 19 -431 -5z m880 -390 c83 -14 136
-27 355 -85 212 -57 318 -75 444 -75 165 0 290 37 327 97 22 36 65 63 99 63
36 0 96 -38 139 -87 51 -59 122 -195 150 -287 22 -72 28 -160 11 -154 -6 2
-30 47 -54 100 -52 116 -103 194 -168 259 -67 67 -80 69 -133 20 -72 -66 -218
-97 -415 -88 -142 7 -243 27 -471 92 -146 42 -195 60 -346 125 -53 23 -73 47
-30 37 12 -3 54 -11 92 -17z"/>
<path d="M15885 24845 c-172 -27 -302 -71 -350 -119 -20 -20 -25 -35 -25 -72
0 -69 29 -116 152 -250 220 -237 277 -353 245 -493 -31 -133 -134 -247 -348
-387 -71 -46 -189 -123 -261 -170 -294 -191 -467 -354 -524 -492 -46 -112 -24
-259 59 -383 162 -244 401 -401 632 -416 73 -5 107 -1 175 16 92 23 222 81
298 133 71 48 169 145 215 212 123 181 232 502 342 1005 67 309 145 830 151
1016 l4 130 -42 85 -43 85 -85 42 c-60 30 -111 47 -174 58 -106 18 -308 18
-421 0z"/>
<path d="M20225 24591 c-222 -36 -520 -187 -790 -401 -221 -175 -496 -444
-665 -651 -260 -318 -608 -860 -792 -1234 -130 -264 -146 -332 -114 -486 15
-70 38 -118 139 -293 75 -130 144 -213 252 -307 149 -131 257 -186 470 -240
189 -47 327 -63 545 -62 267 1 470 34 682 109 171 61 369 184 428 265 85 117
65 238 -93 574 -93 198 -132 298 -181 462 -100 333 -121 620 -61 826 44 154
113 272 334 572 242 330 314 511 265 674 -21 71 -89 141 -166 169 -64 24 -180
34 -253 23z"/>
<path d="M8675 23831 c-49 -22 -71 -54 -86 -120 -20 -93 13 -200 116 -381 164
-288 212 -420 202 -567 -15 -251 -197 -387 -652 -488 -234 -52 -315 -85 -378
-154 -43 -48 -60 -78 -81 -151 -42 -141 47 -316 352 -692 120 -148 177 -204
302 -297 225 -169 444 -229 584 -161 23 11 84 56 136 101 142 121 221 164 385
211 103 29 409 35 660 13 265 -23 569 -31 648 -16 184 36 356 184 408 352 51
163 6 342 -146 584 -126 201 -258 358 -539 644 -298 302 -520 491 -809 689
-502 344 -929 512 -1102 433z m1766 -1521 c161 -160 229 -250 309 -407 47 -91
67 -190 51 -249 -17 -62 -75 -130 -137 -159 -30 -14 -99 -33 -155 -42 -91 -15
-127 -16 -328 -5 -124 6 -269 19 -321 27 -107 17 -190 42 -190 56 0 22 61 29
370 43 346 16 403 25 493 74 60 32 115 94 123 138 7 39 -29 219 -57 283 -35
80 -105 165 -263 319 -86 83 -161 152 -166 152 -6 0 -10 5 -10 11 0 21 128
-89 281 -241z m-1707 -176 c28 -11 18 -31 -36 -74 -74 -59 -106 -73 -243 -108
-132 -35 -243 -71 -300 -98 -35 -16 -37 -20 -32 -53 9 -68 49 -151 113 -239
188 -256 235 -324 231 -329 -20 -19 -202 176 -321 343 -46 66 -113 208 -122
260 -5 35 -2 45 28 84 53 70 158 121 378 185 89 26 134 34 202 34 47 1 93 -2
102 -5z"/>
<path d="M29483 22083 c-16 -3 -23 -12 -23 -27 0 -39 -31 -116 -53 -131 -12
-8 -40 -15 -64 -15 -23 0 -53 -4 -67 -10 -25 -9 -26 -11 -26 -108 0 -85 3
-105 25 -149 50 -99 181 -193 272 -193 47 0 70 17 78 58 26 124 53 154 223
240 65 34 125 68 132 77 22 27 0 65 -73 126 -57 48 -83 62 -175 92 -103 34
-203 50 -249 40z"/>
<path d="M3043 21421 c-45 -12 -81 -37 -103 -74 -32 -52 -88 -241 -126 -422
-19 -93 -44 -206 -55 -250 -21 -83 -104 -265 -159 -348 -37 -55 -160 -161
-310 -267 -169 -119 -216 -129 -406 -89 -183 38 -249 60 -381 129 -146 77
-248 144 -415 277 -203 161 -361 246 -465 247 -28 1 -54 -2 -58 -5 -18 -19
-36 -125 -37 -219 0 -241 47 -499 137 -752 89 -249 99 -296 92 -421 -7 -127
-19 -167 -112 -366 -90 -191 -145 -353 -179 -521 -45 -224 -50 -307 -32 -502
19 -216 41 -928 32 -1057 -12 -176 -65 -427 -150 -711 -63 -211 -81 -318 -81
-490 0 -127 4 -158 28 -250 37 -137 83 -253 113 -290 42 -49 81 -49 177 -2
177 88 389 304 466 473 52 117 69 261 52 439 -16 157 -42 271 -107 466 -95
287 -120 460 -111 768 6 215 24 317 83 488 176 507 512 798 898 775 166 -10
252 -44 423 -170 180 -131 264 -169 331 -149 119 36 225 218 253 432 7 59 5
109 -10 235 -30 242 -33 301 -21 410 14 135 29 185 110 355 100 212 105 232
104 385 0 113 -4 142 -29 220 -68 219 -78 266 -78 380 -1 75 5 130 17 175 25
92 96 230 172 335 143 196 180 267 158 303 -26 44 -154 79 -221 63z"/>
<path d="M25289 20156 c-53 -14 -85 -35 -194 -129 -125 -108 -210 -154 -370
-199 -103 -29 -409 -35 -660 -13 -265 23 -569 31 -648 16 -184 -36 -356 -184
-408 -352 -71 -227 55 -519 395 -919 121 -142 463 -488 613 -620 532 -469
1176 -830 1480 -830 116 0 172 40 194 138 20 94 -12 200 -116 382 -164 288
-212 420 -202 567 15 251 197 387 652 488 234 52 315 85 378 154 43 48 60 78
81 151 42 141 -47 316 -352 692 -120 148 -177 204 -302 297 -204 153 -397 216
-541 177z m568 -448 c34 -24 225 -249 282 -331 45 -66 109 -204 117 -253 5
-35 2 -45 -28 -84 -54 -71 -160 -122 -383 -186 -92 -26 -138 -34 -201 -34
-133 0 -144 14 -61 80 73 59 105 73 242 108 132 35 243 71 300 98 35 16 37 20
32 53 -9 68 -49 151 -113 239 -164 224 -234 322 -234 327 0 10 16 5 47 -17z
m-1697 -198 c243 -16 450 -53 450 -81 0 -22 -61 -29 -370 -43 -346 -16 -403
-25 -493 -74 -60 -32 -115 -94 -123 -138 -7 -39 29 -219 57 -283 35 -80 105
-165 263 -319 86 -83 161 -152 166 -152 6 0 10 -5 10 -11 0 -21 -128 89 -281
241 -161 160 -229 250 -309 407 -47 91 -67 190 -51 249 17 62 75 130 137 159
109 51 249 63 544 45z"/>
<path d="M14885 20044 c-332 -32 -520 -80 -725 -185 -118 -61 -220 -136 -260
-190 -85 -117 -65 -238 93 -574 93 -198 132 -298 181 -462 100 -333 121 -620
61 -826 -44 -154 -113 -272 -334 -572 -294 -400 -352 -622 -203 -774 67 -69
137 -94 267 -94 283 -1 651 193 1070 564 252 222 472 469 685 769 296 416 625
987 690 1199 35 111 19 256 -39 367 -74 141 -162 282 -212 341 -62 74 -189
188 -267 240 -115 76 -337 146 -563 178 -113 16 -366 27 -444 19z"/>
<path d="M4676 19494 c-9 -8 -18 -27 -21 -42 -26 -124 -53 -154 -223 -240 -65
-34 -125 -68 -132 -77 -22 -27 0 -64 72 -125 53 -45 85 -63 160 -88 116 -40
198 -55 249 -47 32 6 39 11 39 29 0 39 31 116 53 131 12 8 40 15 64 15 23 0
53 4 67 10 25 9 26 11 26 108 0 85 -3 105 -25 149 -50 99 -181 193 -272 193
-25 0 -48 -6 -57 -16z"/>
<path d="M31015 18886 c-16 -7 -53 -34 -82 -60 -79 -71 -89 -129 -52 -302 11
-55 23 -151 26 -215 6 -130 -5 -172 -67 -243 -67 -76 -127 -92 -393 -104
l-177 -9 -31 -29 c-18 -16 -44 -46 -60 -67 l-28 -38 107 -107 c141 -141 221
-278 271 -466 21 -76 56 -165 126 -316 24 -52 74 -192 110 -310 37 -118 79
-245 95 -282 82 -198 262 -345 434 -356 87 -5 120 7 296 107 155 89 197 102
335 108 99 4 122 1 228 -26 65 -16 189 -57 275 -90 441 -168 757 -196 1033
-92 78 30 132 67 224 158 58 58 90 99 118 154 37 74 37 74 37 199 0 136 -9
183 -60 303 -91 218 -285 406 -544 528 -46 21 -175 70 -287 108 -259 87 -384
138 -622 256 -423 207 -632 344 -772 507 -79 91 -111 159 -150 319 -20 79 -43
168 -51 197 -37 129 -221 220 -339 168z m-31 -2118 c52 -116 103 -194 168
-259 67 -67 80 -69 133 -20 72 66 218 97 415 88 142 -7 243 -27 471 -92 146
-42 195 -60 347 -125 52 -23 72 -47 30 -37 -13 3 -54 11 -93 17 -83 14 -136
27 -355 85 -212 57 -318 75 -444 75 -165 0 -290 -37 -327 -97 -22 -36 -65 -63
-99 -63 -36 0 -96 38 -139 87 -51 59 -122 195 -150 287 -22 72 -28 160 -11
154 6 -2 30 -47 54 -100z"/>
<path d="M18630 18880 c-85 -23 -217 -83 -288 -132 -71 -48 -169 -145 -215
-212 -123 -181 -232 -502 -342 -1005 -67 -309 -145 -830 -151 -1016 l-4 -130
42 -85 43 -85 85 -42 c103 -52 213 -73 376 -73 238 0 495 61 569 134 20 20 25
35 25 72 0 69 -29 116 -152 250 -220 237 -277 353 -245 493 31 133 134 247
348 387 71 46 189 123 262 170 293 191 466 354 523 492 61 148 11 317 -148
498 -121 138 -240 221 -398 276 -84 30 -235 33 -330 8z"/>
<path d="M10320 18355 c-98 -17 -200 -54 -332 -122 -144 -73 -266 -156 -563
-384 -137 -105 -293 -219 -345 -254 -206 -136 -597 -328 -882 -434 -232 -86
-652 -202 -1111 -307 l-78 -18 126 -33 c249 -66 551 -198 755 -331 214 -139
407 -325 544 -523 44 -62 141 -195 216 -294 171 -226 197 -265 304 -453 89
-156 159 -304 234 -492 23 -58 52 -120 63 -139 l21 -34 38 96 c65 165 167 308
300 420 98 82 411 294 514 348 53 27 165 71 268 104 98 30 214 74 259 97 122
61 156 101 243 281 85 176 125 221 250 282 96 47 171 65 296 72 175 9 273 -16
555 -141 139 -62 257 -43 362 58 61 60 66 83 32 153 -46 96 -166 200 -429 376
-219 146 -306 213 -419 322 -222 214 -410 532 -521 885 -64 202 -78 228 -149
303 -100 106 -161 138 -311 163 -99 16 -138 16 -240 -1z"/>
<path d="M25861 16460 c-70 -25 -101 -56 -146 -142 -20 -38 -51 -86 -68 -105
-43 -49 -131 -105 -209 -133 -107 -38 -126 -77 -92 -191 25 -84 60 -163 132
-294 84 -154 118 -238 138 -339 19 -95 42 -143 119 -251 69 -97 156 -188 210
-220 52 -31 139 -40 240 -25 44 6 105 15 135 19 61 8 161 53 232 103 69 49
106 101 113 156 9 79 24 132 71 247 99 247 109 420 33 616 -40 104 -90 160
-159 178 -65 17 -106 52 -190 166 -113 152 -164 196 -255 220 -85 22 -236 19
-304 -5z"/>
<path d="M6880 15959 c-63 -12 -145 -55 -176 -92 -15 -18 -39 -57 -53 -87 -35
-75 -33 -174 7 -390 17 -91 38 -235 47 -320 25 -231 69 -387 146 -517 102
-172 466 -454 1019 -793 338 -206 443 -281 558 -396 92 -93 92 -93 92 -60 0
18 -4 68 -10 112 -5 43 -17 185 -25 314 -13 211 -25 319 -81 735 -35 257 -143
547 -275 735 -113 162 -379 394 -679 593 -229 152 -395 200 -570 166z"/>
<path d="M22375 14681 c-49 -22 -71 -54 -86 -120 -20 -93 13 -200 116 -381
164 -288 212 -420 202 -567 -15 -251 -197 -387 -652 -488 -234 -52 -315 -85
-378 -154 -43 -48 -60 -78 -81 -151 -42 -141 47 -316 352 -692 120 -148 177
-204 302 -297 225 -169 444 -229 584 -161 23 11 84 56 136 101 142 121 221
164 385 211 103 29 409 35 660 13 265 -23 569 -31 648 -16 184 36 356 184 408
352 51 163 6 342 -146 584 -126 201 -258 358 -539 644 -298 302 -520 491 -809
689 -502 344 -929 512 -1102 433z m1766 -1521 c161 -160 229 -250 309 -407 47
-91 67 -190 51 -249 -17 -62 -75 -130 -137 -159 -30 -14 -99 -33 -155 -42 -91
-15 -127 -16 -328 -5 -124 6 -269 19 -321 27 -107 17 -190 42 -190 56 0 22 61
29 370 43 346 16 403 25 493 74 60 32 115 94 123 138 7 39 -29 219 -57 283
-35 80 -105 165 -263 319 -86 83 -161 152 -166 152 -6 0 -10 5 -10 11 0 21
128 -89 281 -241z m-1707 -176 c28 -11 18 -31 -36 -74 -74 -59 -106 -73 -243
-108 -132 -35 -243 -71 -300 -98 -35 -16 -37 -20 -32 -53 9 -68 49 -151 113
-239 188 -256 235 -324 231 -329 -20 -19 -202 176 -321 343 -46 66 -113 208
-122 260 -5 35 -2 45 28 84 53 70 158 121 378 185 89 26 134 34 202 34 47 1
93 -2 102 -5z"/>
<path d="M3087 14039 c-28 -17 -47 -71 -47 -134 0 -41 12 -89 51 -193 28 -77
57 -179 67 -233 22 -131 10 -162 -100 -261 -88 -80 -108 -110 -108 -163 0 -65
28 -90 145 -134 98 -37 230 -25 335 29 32 17 38 27 68 123 28 89 41 114 90
173 l57 69 -1 145 c-1 173 -19 241 -85 326 -119 155 -393 302 -472 253z"/>
<path d="M13387 12546 c-59 -16 -101 -46 -105 -75 -5 -34 39 -118 123 -231
177 -241 231 -375 229 -570 -2 -108 -13 -163 -79 -375 -25 -78 -29 -107 -29
-220 -1 -153 4 -173 104 -385 81 -170 96 -220 110 -355 12 -109 9 -168 -21
-410 -15 -126 -17 -176 -10 -235 21 -163 91 -318 177 -388 101 -83 176 -64
407 105 171 126 257 160 423 170 386 23 722 -268 898 -775 59 -171 77 -273 83
-488 9 -308 -16 -481 -111 -768 -108 -327 -138 -579 -94 -791 42 -199 278
-474 505 -587 96 -47 135 -47 177 2 30 37 76 153 113 290 24 92 28 123 28 250
0 172 -18 279 -81 490 -85 284 -138 535 -150 711 -9 129 13 841 32 1057 18
195 13 278 -32 502 -34 168 -89 330 -179 521 -93 199 -105 239 -112 366 -7
125 3 172 92 421 90 253 137 511 137 752 -1 94 -19 200 -37 219 -4 3 -30 6
-58 5 -104 -1 -262 -86 -465 -247 -167 -133 -269 -200 -415 -277 -132 -69
-198 -91 -381 -129 -190 -40 -237 -30 -406 89 -150 106 -273 212 -310 267 -55
83 -138 265 -159 348 -11 44 -36 157 -55 250 -40 190 -97 378 -129 427 -43 63
-131 89 -220 64z"/>
<path d="M32085 12272 c-133 -45 -237 -118 -275 -192 -11 -22 -24 -89 -35
-180 -14 -121 -38 -227 -70 -311 -15 -41 69 -32 300 32 83 22 184 57 225 76
92 44 180 128 198 189 40 136 -34 341 -141 393 -57 28 -105 26 -202 -7z"/>
<path d="M19584 12105 c-18 -44 -18 -135 1 -250 27 -163 15 -231 -58 -328 -62
-82 -100 -107 -160 -107 -72 0 -118 30 -177 116 -116 168 -216 207 -382 148
-113 -40 -150 -66 -182 -124 -38 -69 -63 -84 -132 -77 -67 7 -118 35 -227 128
-275 234 -336 268 -422 230 -45 -20 -85 -69 -85 -103 0 -10 59 -79 131 -155
72 -76 170 -187 218 -247 47 -60 104 -132 127 -160 58 -73 111 -102 261 -141
72 -18 150 -43 174 -56 118 -60 252 -176 361 -315 36 -45 80 -86 122 -114 61
-39 75 -44 154 -51 48 -4 103 -4 122 1 19 4 68 14 108 20 92 15 197 67 314
155 103 78 240 205 280 259 49 68 35 143 -65 342 -67 133 -86 198 -113 388
-29 201 -43 254 -84 319 -58 92 -154 157 -233 157 -34 0 -40 -4 -53 -35z"/>
<path d="M12714 12039 c-43 -23 -106 -59 -140 -80 -86 -56 -270 -135 -382
-167 -90 -25 -111 -27 -287 -27 -281 0 -408 31 -688 171 -420 211 -487 184
-882 -341 -199 -266 -251 -318 -504 -508 -119 -89 -250 -196 -292 -237 -166
-164 -211 -321 -228 -797 -9 -228 -6 -299 14 -345 9 -22 8 -22 48 -2 85 43
184 130 447 389 363 358 492 461 693 555 160 75 232 90 522 105 226 12 272 17
350 40 165 48 352 142 572 287 95 62 144 107 408 375 284 289 304 311 382 435
45 71 86 143 92 159 9 28 9 29 -18 29 -15 0 -63 -19 -107 -41z"/>
<path d="M1399 11604 c-7 -16 -18 -43 -25 -59 -7 -17 -17 -42 -22 -55 -16 -42
-98 -136 -148 -169 -37 -24 -58 -31 -96 -31 -49 0 -51 1 -153 99 -145 140
-248 187 -355 161 -94 -23 -132 -49 -166 -119 -42 -84 -47 -157 -38 -553 l7
-317 26 18 c14 10 31 20 36 21 6 1 20 6 33 11 34 13 125 11 159 -3 43 -19 119
-79 137 -110 19 -32 20 -90 3 -149 -8 -24 -14 -48 -16 -54 -8 -44 -25 -99 -46
-150 -32 -80 -78 -232 -73 -245 2 -6 13 -5 28 4 24 12 102 56 145 80 11 6 34
21 52 34 17 12 34 22 38 22 3 0 23 11 43 25 20 14 43 25 51 25 26 0 116 48
141 75 14 15 43 40 65 55 36 24 42 35 54 91 11 47 12 75 4 113 -17 84 -14 264
5 321 24 68 54 115 99 151 75 61 98 68 238 72 141 4 175 12 218 51 43 39 58
79 64 163 8 105 -15 130 -129 141 -31 3 -70 13 -86 21 -27 14 -102 96 -102
112 0 4 -16 26 -35 50 -19 23 -35 46 -35 51 0 16 -54 61 -82 68 -24 6 -29 3
-39 -21z"/>
<path d="M30591 11364 c-132 -35 -340 -177 -537 -367 -65 -62 -226 -227 -359
-367 -414 -436 -625 -618 -1070 -920 -275 -187 -388 -274 -506 -391 -110 -110
-193 -216 -237 -305 -52 -104 -132 -377 -143 -489 -5 -55 -15 -103 -22 -107
-15 -9 56 -40 148 -63 96 -25 263 -25 332 -2 85 30 125 65 165 149 112 234
403 637 574 798 129 121 319 252 652 449 517 306 725 459 952 699 250 265 350
460 352 682 1 134 -32 194 -129 230 -63 23 -98 24 -172 4z"/>
<path d="M34020 10835 c-105 -110 -283 -188 -463 -205 -166 -16 -219 -32 -535
-157 l-193 -76 78 -45 c193 -111 237 -140 292 -192 71 -68 91 -106 131 -246
35 -126 40 -237 14 -325 -9 -30 -38 -96 -66 -147 -56 -106 -60 -102 62 -55 36
14 83 38 105 53 73 48 288 223 351 285 130 128 148 194 199 723 8 90 27 215
41 279 14 64 24 123 22 130 -2 9 -15 2 -38 -22z"/>
<path d="M4161 8038 c-12 -12 -54 -69 -93 -126 -168 -244 -377 -364 -738 -424
-44 -7 -160 -12 -280 -12 -179 0 -215 3 -285 22 -109 30 -202 78 -315 163
-182 136 -335 192 -530 191 -178 -1 -308 -43 -455 -147 -156 -110 -222 -232
-285 -520 -22 -105 -121 -726 -139 -880 -16 -134 -14 -354 5 -434 29 -130 109
-223 217 -252 95 -25 226 9 378 98 136 80 206 139 526 437 226 211 498 417
718 542 66 38 206 107 310 153 105 46 232 106 283 134 171 94 371 259 511 421
194 226 282 387 283 522 1 47 -4 61 -29 92 -37 45 -55 50 -82 20z"/>
<path d="M12480 7845 c-85 -13 -240 -44 -345 -69 -441 -106 -642 -118 -1222
-76 -182 13 -451 0 -588 -29 -290 -62 -423 -163 -549 -418 -67 -135 -89 -218
-84 -317 5 -106 31 -153 110 -206 90 -60 112 -64 268 -54 74 5 205 9 290 9
130 -1 167 -4 233 -23 214 -61 268 -135 361 -502 30 -118 62 -237 71 -265 54
-157 132 -245 218 -245 49 0 129 44 182 101 87 93 125 214 150 476 37 391 61
505 136 662 43 87 63 117 127 180 132 132 230 179 542 261 219 58 317 94 395
146 90 59 159 149 186 241 11 39 10 45 -7 64 -28 31 -88 59 -163 75 -87 18
-126 17 -311 -11z"/>
<path d="M32264 7579 c-211 -35 -423 -153 -577 -319 -160 -173 -307 -449 -307
-575 0 -66 21 -108 92 -182 108 -112 255 -204 508 -315 204 -91 339 -162 404
-215 80 -64 134 -164 166 -306 22 -100 23 -102 79 -157 61 -59 163 -118 248
-143 29 -9 94 -19 145 -22 111 -8 133 2 202 83 77 90 73 147 -21 284 -30 44
-70 111 -87 147 l-31 66 1 260 c0 143 2 377 5 520 4 279 0 322 -48 470 -39
121 -78 188 -151 257 -76 70 -174 121 -277 143 -76 16 -267 18 -351 4z"/>
<path d="M18879 7575 c-253 -64 -824 -491 -1008 -755 -132 -188 -240 -478
-275 -735 -56 -416 -68 -524 -81 -735 -8 -129 -20 -271 -25 -314 -6 -44 -10
-94 -10 -112 0 -33 0 -33 93 60 114 115 219 190 557 396 553 339 917 621 1019
793 77 130 121 286 146 517 9 85 30 229 47 320 17 92 31 203 32 250 1 78 -2
92 -32 152 -58 118 -146 167 -312 174 -62 2 -115 -1 -151 -11z"/>
<path d="M28395 6706 c-340 -89 -876 -417 -1318 -806 -150 -132 -492 -478
-613 -620 -340 -400 -466 -692 -395 -919 52 -168 224 -316 408 -352 79 -15
383 -7 648 16 251 22 557 16 660 -13 164 -47 243 -90 385 -211 52 -45 113 -90
136 -101 140 -68 359 -8 584 161 125 93 182 149 302 297 234 289 334 450 357
578 23 128 -53 270 -178 334 -65 32 -121 49 -286 85 -455 101 -637 237 -652
488 -10 147 38 279 202 567 72 126 101 197 116 278 12 63 -1 140 -31 182 -45
63 -168 77 -325 36z m-1246 -1303 c-19 -15 -94 -86 -167 -157 -138 -135 -208
-221 -241 -297 -28 -64 -64 -244 -57 -283 8 -44 63 -106 123 -138 90 -49 147
-58 493 -74 309 -14 370 -21 370 -43 0 -14 -83 -39 -190 -56 -52 -8 -197 -21
-321 -27 -201 -11 -237 -10 -328 5 -129 21 -197 53 -245 114 -50 64 -61 111
-46 195 26 145 151 340 345 534 132 133 285 268 294 259 2 -2 -12 -17 -30 -32z
m1756 -417 c223 -64 329 -115 383 -186 30 -39 33 -49 28 -84 -9 -52 -76 -194
-122 -260 -71 -98 -255 -312 -285 -330 -63 -37 -58 -29 195 316 64 88 104 171
113 239 5 33 3 37 -32 53 -57 27 -168 63 -300 98 -66 17 -136 39 -155 48 -50
26 -140 99 -140 115 0 20 16 23 110 24 69 1 109 -6 205 -33z"/>
<path d="M4155 5289 c-11 -6 -40 -31 -65 -54 -94 -89 -137 -115 -190 -115 -27
0 -71 -5 -99 -11 -61 -13 -94 -46 -345 -352 -169 -206 -261 -311 -522 -595
-149 -163 -226 -274 -336 -487 -118 -230 -164 -299 -274 -414 l-89 -94 -6
-136 c-7 -146 -13 -170 -97 -371 -21 -52 -47 -124 -56 -160 -19 -78 -50 -559
-40 -640 9 -80 34 -190 44 -190 19 0 151 282 276 590 30 74 74 169 96 210 23
41 56 102 74 136 47 86 76 114 116 114 47 0 96 -34 115 -78 8 -20 17 -39 18
-40 2 -2 32 11 67 30 42 22 97 67 163 133 86 85 120 130 225 295 147 230 199
286 341 366 133 75 240 111 373 125 199 21 307 -6 529 -134 234 -135 350 -183
522 -216 181 -35 330 -23 417 34 47 31 85 104 103 198 l13 71 -30 28 c-20 19
-67 40 -147 65 -106 34 -129 38 -266 43 -88 3 -159 10 -171 17 -55 31 -75 111
-44 179 11 26 20 53 20 60 0 21 -79 62 -155 80 -98 23 -231 13 -425 -31 -85
-20 -180 -38 -210 -41 -156 -17 -357 81 -414 201 -40 83 -28 181 36 309 35 69
98 133 288 289 111 91 131 112 185 198 85 137 136 202 169 218 39 18 90 2 152
-49 27 -22 64 -48 84 -57 37 -18 153 -29 195 -19 24 6 61 59 51 75 -17 27
-108 69 -306 141 -181 66 -239 83 -295 86 -43 3 -78 0 -90 -7z"/>
<path d="M8007 4779 c-250 -34 -497 -200 -685 -461 -79 -110 -136 -222 -104
-206 136 69 254 94 407 84 176 -11 382 -70 511 -147 205 -121 356 -421 371
-735 10 -221 -25 -364 -155 -629 -136 -276 -216 -389 -403 -570 -229 -222
-485 -354 -813 -420 -187 -37 -342 -48 -591 -40 -400 12 -578 -22 -875 -163
-330 -158 -616 -423 -680 -631 -39 -124 -21 -241 46 -303 78 -71 185 -98 399
-98 226 0 397 29 725 122 581 164 1244 431 1645 663 398 230 825 604 1085 951
251 334 455 787 526 1173 22 120 30 405 14 528 -15 125 -50 246 -101 352 -114
235 -459 451 -824 516 -108 19 -403 28 -498 14z"/>
<path d="M21810 4255 c-167 -41 -328 -140 -480 -294 -124 -126 -215 -251 -289
-398 -124 -247 -150 -407 -120 -733 23 -251 52 -338 235 -695 145 -283 180
-423 172 -678 -6 -155 -28 -248 -90 -372 -104 -207 -330 -456 -602 -665 -43
-33 -77 -60 -75 -60 2 0 54 7 114 15 151 20 253 19 408 -6 203 -32 263 -25
732 89 101 25 127 27 320 27 146 0 255 -6 360 -19 114 -14 189 -17 320 -13
190 5 268 23 343 77 71 51 75 106 27 410 -19 119 -19 295 -1 381 29 134 114
279 223 379 61 56 162 132 354 269 185 131 294 249 329 356 18 55 16 161 -4
222 -33 101 -111 176 -251 246 -93 46 -174 70 -379 112 -292 60 -383 92 -502
173 -148 100 -275 293 -379 577 -26 72 -57 148 -68 170 -33 67 -116 182 -161
223 -45 41 -197 147 -256 177 -85 44 -181 54 -280 30z"/>
<path d="M12664 3347 l-48 -44 -8 -149 c-4 -82 -12 -170 -18 -197 -13 -65 -50
-119 -107 -159 -47 -33 -50 -33 -153 -32 -70 1 -133 8 -190 23 -163 40 -220
23 -291 -88 -51 -78 -35 -171 43 -257 33 -36 102 -63 215 -83 108 -20 209 -65
278 -124 143 -122 232 -253 400 -587 116 -229 188 -402 245 -585 122 -394 284
-602 555 -710 69 -28 97 -33 201 -39 l122 -6 63 33 c71 36 207 166 240 229 94
183 104 429 27 693 -11 39 -24 84 -29 100 -4 17 -22 66 -39 110 -60 151 -90
265 -96 365 -8 132 6 202 58 295 117 209 111 195 116 278 4 72 2 81 -29 143
-41 80 -125 169 -200 211 -53 30 -158 68 -374 136 -60 20 -154 56 -208 81 -54
25 -102 46 -108 46 -5 0 -26 8 -47 19 -20 10 -65 26 -100 35 -79 20 -211 85
-281 139 -30 23 -79 70 -110 104 -31 35 -61 63 -68 63 -6 0 -33 -19 -59 -43z
m990 -622 c132 -43 259 -129 286 -194 19 -46 5 -97 -31 -118 -65 -38 -89 -123
-89 -313 0 -105 6 -137 84 -435 24 -92 47 -202 50 -246 l4 -54 -35 75 c-57
121 -131 374 -158 539 -33 205 -6 389 69 469 l30 32 -19 36 c-26 49 -144 134
-247 179 -49 21 -88 42 -88 47 0 16 68 8 144 -17z"/>
<path d="M33853 3160 c-117 -172 -137 -187 -243 -177 -64 5 -82 -5 -135 -76
-19 -28 -47 -48 -94 -69 -36 -16 -67 -31 -70 -33 -2 -3 7 -16 21 -30 46 -46
52 -76 33 -152 -29 -118 -29 -120 -6 -149 41 -52 56 -58 107 -38 39 15 52 15
97 5 38 -9 59 -10 80 -2 16 6 48 11 72 11 39 0 46 4 65 35 21 34 21 37 5 55
-9 10 -27 21 -40 24 -60 15 -56 92 10 211 25 44 70 129 100 189 46 91 55 118
55 161 0 77 -21 89 -57 35z"/>
<path d="M31517 1796 c-75 -28 -126 -72 -378 -329 l-257 -262 58 -17 c112 -35
180 -135 180 -264 0 -45 -5 -59 -32 -89 -26 -31 -202 -145 -223 -145 -9 0
-179 -86 -234 -118 l-45 -26 60 -18 c32 -10 115 -32 184 -49 69 -17 147 -42
174 -56 33 -17 78 -28 135 -34 47 -5 97 -11 111 -14 37 -9 116 48 173 125 101
136 196 211 304 239 55 15 164 -2 218 -34 22 -13 72 -56 110 -96 77 -80 112
-99 180 -99 62 0 105 20 165 76 58 54 63 83 25 135 -50 69 -85 135 -85 159 0
14 9 77 20 140 23 136 25 180 6 205 -12 17 -16 17 -88 -13 -183 -76 -367 -59
-407 38 -5 14 -12 88 -14 165 -6 211 -45 300 -160 359 -66 34 -128 41 -180 22z"/>
</g>
</svg>
